<?xml version="1.0" encoding="UTF-8" standalone="no"?>
<!-- Created with Inkscape (http://www.inkscape.org/) -->

<svg
   xmlns:dc="http://purl.org/dc/elements/1.1/"
   xmlns:cc="http://creativecommons.org/ns#"
   xmlns:rdf="http://www.w3.org/1999/02/22-rdf-syntax-ns#"
   xmlns:svg="http://www.w3.org/2000/svg"
   xmlns="http://www.w3.org/2000/svg"
   xmlns:sodipodi="http://sodipodi.sourceforge.net/DTD/sodipodi-0.dtd"
   xmlns:inkscape="http://www.inkscape.org/namespaces/inkscape"
   width="69.472069mm"
   height="21.621365mm"
   viewBox="0 0 246.16087 76.611134"
   id="svg4647"
   version="1.1"
   inkscape:version="0.91 r13725"
   sodipodi:docname="enj.svg">
  <defs
     id="defs4649" />
  <sodipodi:namedview
     id="base"
     pagecolor="#ffffff"
     bordercolor="#666666"
     borderopacity="1.0"
     inkscape:pageopacity="0.0"
     inkscape:pageshadow="2"
     inkscape:zoom="2.8051142"
     inkscape:cx="234.75989"
     inkscape:cy="-20.758588"
     inkscape:document-units="px"
     inkscape:current-layer="layer2"
     showgrid="false"
     inkscape:window-width="1920"
     inkscape:window-height="1057"
     inkscape:window-x="-8"
     inkscape:window-y="-8"
     inkscape:window-maximized="1"
     fit-margin-top="0"
     fit-margin-left="0"
     fit-margin-right="0"
     fit-margin-bottom="0" />
  <metadata
     id="metadata4652">
    <rdf:RDF>
      <cc:Work
         rdf:about="">
        <dc:format>image/svg+xml</dc:format>
        <dc:type
           rdf:resource="http://purl.org/dc/dcmitype/StillImage" />
        <dc:title></dc:title>
      </cc:Work>
    </rdf:RDF>
  </metadata>
  <g
     inkscape:label="Layer 1"
     inkscape:groupmode="layer"
     id="layer1"
     transform="translate(-77.560663,-23.956184)">
    <text
       xml:space="preserve"
       style="font-style:normal;font-variant:normal;font-weight:normal;font-stretch:normal;font-size:42.40670395px;line-height:125%;font-family:'Matilde Sketch';-inkscape-font-specification:'Matilde Sketch';letter-spacing:0px;word-spacing:0px;fill:#000000;fill-opacity:1;stroke:none;stroke-width:1px;stroke-linecap:butt;stroke-linejoin:miter;stroke-opacity:1"
       x="113.37634"
       y="127.31915"
       id="text4577"
       sodipodi:linespacing="125%"
       transform="scale(1.0075627,0.99249402)"><tspan
         sodipodi:role="line"
         id="tspan4579"
         x="113.37634"
         y="127.31915"
         style="font-style:normal;font-variant:normal;font-weight:normal;font-stretch:normal;font-family:'Matilde Sketch';-inkscape-font-specification:'Matilde Sketch';fill:#666666" /></text>
    <text
       sodipodi:linespacing="125%"
       id="text3392"
       y="131.86218"
       x="117"
       style="font-style:normal;font-weight:normal;font-size:40px;line-height:125%;font-family:sans-serif;letter-spacing:0px;word-spacing:0px;fill:#000000;fill-opacity:1;stroke:none;stroke-width:1px;stroke-linecap:butt;stroke-linejoin:miter;stroke-opacity:1"
       xml:space="preserve"><tspan
         y="131.86218"
         x="117"
         id="tspan3394"
         sodipodi:role="line" /></text>
    <g
       id="g3856"
       transform="matrix(0.93216361,0,0,-0.75157856,83.085027,80.905165)">
      <path
         d="m 0,0 c 0,0 -0.188,0.088 -0.511,0.329 -0.288,0.236 -0.815,0.702 -0.833,1.542 -0.028,0.82 0.407,1.72 1.012,2.572 0.608,0.863 1.391,1.742 2.277,2.644 0.45,0.466 0.9,0.897 1.351,1.396 0.393,0.457 0.799,0.996 1.131,1.568 0.678,1.149 1.111,2.509 1.238,3.929 0.116,1.419 -0.116,2.914 -0.763,4.215 -0.623,1.315 -1.659,2.399 -2.991,3.039 -1.167,0.549 -2.68,0.505 -3.849,-0.185 -1.177,-0.673 -2.015,-1.857 -2.182,-3.137 -0.187,-1.332 0.24,-2.51 1.209,-3.186 0.952,-0.671 2.258,-0.815 3.24,-0.467 1.008,0.34 1.58,1.228 1.636,2.151 0.112,0.933 -0.315,1.666 -0.955,1.881 -0.627,0.231 -1.19,-0.053 -1.411,-0.352 -0.23,-0.304 -0.252,-0.532 -0.267,-0.524 0.018,-0.005 -0.006,0.217 0.18,0.583 0.174,0.347 0.76,0.845 1.599,0.666 C 1.515,18.587 1.943,18.337 2.245,17.923 2.564,17.497 2.69,16.948 2.716,16.4 2.745,15.842 2.648,15.205 2.328,14.605 2.002,14.013 1.447,13.503 0.786,13.193 c -1.319,-0.63 -3.036,-0.624 -4.519,0.254 -0.739,0.431 -1.391,1.128 -1.77,1.974 -0.101,0.195 -0.177,0.473 -0.244,0.687 l -0.065,0.28 -0.017,0.07 -0.023,0.132 -0.021,0.166 c -0.062,0.442 -0.07,0.9 -0.024,1.359 0.149,1.853 1.298,3.652 2.985,4.615 1.665,0.988 3.87,1.205 5.729,0.27 1.679,-0.832 3.07,-2.316 3.822,-3.99 C 7.404,17.327 7.591,15.489 7.386,13.798 7.183,12.096 6.519,10.546 5.661,9.271 5.224,8.629 4.758,8.066 4.21,7.553 3.709,7.091 3.173,6.665 2.712,6.268 1.769,5.457 0.911,4.714 0.252,3.98 -0.4,3.25 -0.889,2.524 -0.957,1.858 -1.044,1.188 -0.689,0.686 -0.438,0.406 -0.176,0.125 0,0 0,0"
         style="fill:#837c74;fill-opacity:1;fill-rule:nonzero;stroke:none"
         id="path3858"
         inkscape:connector-curvature="0" />
    </g>
    <g
       id="g3860"
       transform="matrix(0.93216361,0,0,-0.75157856,83.085027,46.091065)">
      <path
         d="m 0,0 c 0,0 -0.176,-0.125 -0.438,-0.406 -0.251,-0.28 -0.606,-0.782 -0.519,-1.452 0.068,-0.666 0.557,-1.392 1.209,-2.122 0.659,-0.734 1.517,-1.477 2.46,-2.288 0.461,-0.397 0.997,-0.823 1.498,-1.285 0.548,-0.513 1.014,-1.076 1.451,-1.718 0.858,-1.275 1.522,-2.825 1.725,-4.526 0.205,-1.692 0.018,-3.53 -0.747,-5.213 -0.753,-1.674 -2.143,-3.158 -3.822,-3.989 -1.858,-0.936 -4.064,-0.719 -5.728,0.269 -1.688,0.963 -2.836,2.761 -2.986,4.614 -0.046,0.459 -0.038,0.918 0.024,1.359 l 0.021,0.166 0.023,0.133 0.017,0.07 0.065,0.279 c 0.067,0.215 0.143,0.493 0.243,0.687 0.38,0.846 1.032,1.544 1.77,1.975 1.484,0.878 3.201,0.884 4.519,0.254 0.661,-0.309 1.217,-0.819 1.542,-1.411 0.32,-0.6 0.418,-1.237 0.389,-1.795 -0.026,-0.549 -0.151,-1.098 -0.471,-1.523 -0.301,-0.415 -0.73,-0.665 -1.133,-0.741 -0.839,-0.18 -1.426,0.318 -1.599,0.665 -0.187,0.366 -0.163,0.588 -0.181,0.583 0.015,0.008 0.037,-0.22 0.268,-0.524 0.22,-0.299 0.783,-0.583 1.41,-0.352 0.64,0.216 1.067,0.949 0.955,1.881 -0.056,0.924 -0.629,1.811 -1.637,2.151 -0.982,0.348 -2.288,0.203 -3.239,-0.467 -0.969,-0.676 -1.396,-1.855 -1.209,-3.187 0.167,-1.28 1.006,-2.463 2.183,-3.136 1.168,-0.69 2.682,-0.734 3.848,-0.185 1.332,0.64 2.368,1.724 2.991,3.039 0.647,1.301 0.879,2.796 0.763,4.215 -0.127,1.421 -0.56,2.78 -1.238,3.929 -0.332,0.572 -0.738,1.111 -1.131,1.568 -0.451,0.499 -0.901,0.93 -1.351,1.396 -0.886,0.902 -1.669,1.781 -2.278,2.644 -0.604,0.852 -1.039,1.752 -1.011,2.572 0.018,0.84 0.545,1.306 0.833,1.542 C -0.188,-0.088 0,0 0,0"
         style="fill:#837c74;fill-opacity:1;fill-rule:nonzero;stroke:none"
         id="path3862"
         inkscape:connector-curvature="0" />
    </g>
    <g
       id="g3864"
       transform="matrix(0.93216361,0,0,-0.75157856,318.19746,80.905165)">
      <path
         d="M 0,0 C 0,0 0.176,0.125 0.438,0.406 0.689,0.686 1.044,1.188 0.957,1.858 0.889,2.524 0.4,3.25 -0.252,3.98 c -0.659,0.734 -1.517,1.477 -2.46,2.288 -0.461,0.397 -0.997,0.823 -1.498,1.285 -0.548,0.513 -1.014,1.076 -1.451,1.718 -0.858,1.275 -1.522,2.825 -1.725,4.527 -0.205,1.691 -0.018,3.529 0.747,5.212 0.752,1.674 2.143,3.158 3.822,3.99 1.859,0.935 4.064,0.718 5.729,-0.27 1.687,-0.963 2.836,-2.762 2.985,-4.615 0.046,-0.459 0.037,-0.917 -0.024,-1.359 L 5.852,16.59 5.829,16.458 5.812,16.388 5.747,16.108 C 5.68,15.894 5.604,15.616 5.504,15.421 5.124,14.575 4.472,13.878 3.733,13.447 2.25,12.569 0.533,12.563 -0.786,13.193 c -0.661,0.31 -1.216,0.82 -1.542,1.412 -0.32,0.6 -0.417,1.237 -0.388,1.795 0.027,0.548 0.152,1.097 0.471,1.523 0.302,0.414 0.73,0.664 1.134,0.741 0.839,0.179 1.425,-0.319 1.599,-0.666 0.186,-0.366 0.162,-0.588 0.18,-0.583 -0.015,-0.008 -0.037,0.22 -0.267,0.524 -0.221,0.299 -0.784,0.583 -1.411,0.352 -0.64,-0.215 -1.067,-0.948 -0.955,-1.881 0.056,-0.923 0.629,-1.811 1.636,-2.151 0.982,-0.348 2.288,-0.204 3.24,0.467 0.969,0.676 1.396,1.854 1.209,3.186 -0.167,1.28 -1.005,2.464 -2.182,3.137 -1.169,0.69 -2.682,0.734 -3.849,0.185 -1.332,-0.64 -2.368,-1.724 -2.991,-3.039 -0.647,-1.301 -0.879,-2.796 -0.763,-4.215 0.127,-1.42 0.56,-2.78 1.238,-3.929 0.332,-0.572 0.738,-1.111 1.131,-1.568 0.45,-0.499 0.901,-0.93 1.351,-1.396 C -1.059,6.185 -0.276,5.306 0.332,4.443 0.937,3.591 1.372,2.691 1.344,1.871 1.326,1.031 0.799,0.565 0.511,0.329 0.187,0.088 0,0 0,0"
         style="fill:#837c74;fill-opacity:1;fill-rule:nonzero;stroke:none"
         id="path3866"
         inkscape:connector-curvature="0" />
    </g>
    <g
       id="g3868"
       transform="matrix(0.93216361,0,0,-0.75157856,318.19746,46.091065)">
      <path
         d="m 0,0 c 0,0 0.187,-0.088 0.511,-0.329 0.288,-0.236 0.815,-0.702 0.833,-1.542 0.028,-0.82 -0.407,-1.72 -1.012,-2.572 -0.608,-0.863 -1.391,-1.742 -2.277,-2.644 -0.45,-0.466 -0.9,-0.897 -1.351,-1.396 -0.393,-0.457 -0.799,-0.996 -1.131,-1.568 -0.678,-1.149 -1.111,-2.508 -1.238,-3.929 -0.116,-1.419 0.116,-2.914 0.763,-4.215 0.623,-1.315 1.659,-2.399 2.991,-3.039 1.166,-0.549 2.68,-0.505 3.848,0.185 1.177,0.673 2.016,1.856 2.183,3.136 0.187,1.332 -0.24,2.511 -1.209,3.187 -0.952,0.67 -2.257,0.815 -3.239,0.467 -1.008,-0.34 -1.581,-1.227 -1.637,-2.151 -0.112,-0.932 0.315,-1.665 0.955,-1.881 0.627,-0.231 1.19,0.053 1.41,0.352 0.231,0.304 0.253,0.532 0.268,0.524 -0.018,0.005 0.006,-0.217 -0.18,-0.583 -0.174,-0.347 -0.761,-0.845 -1.6,-0.665 -0.403,0.076 -0.832,0.326 -1.133,0.741 -0.32,0.425 -0.445,0.974 -0.471,1.523 -0.029,0.558 0.069,1.195 0.389,1.795 0.325,0.592 0.88,1.102 1.542,1.411 1.318,0.63 3.035,0.624 4.519,-0.254 0.738,-0.431 1.39,-1.129 1.77,-1.975 0.1,-0.194 0.176,-0.472 0.243,-0.687 l 0.065,-0.279 0.017,-0.07 0.023,-0.133 0.021,-0.166 c 0.061,-0.441 0.07,-0.9 0.024,-1.359 -0.15,-1.853 -1.298,-3.651 -2.986,-4.614 -1.664,-0.988 -3.87,-1.205 -5.728,-0.269 -1.679,0.831 -3.069,2.315 -3.822,3.989 -0.765,1.683 -0.952,3.521 -0.747,5.213 0.203,1.701 0.867,3.251 1.725,4.526 0.437,0.642 0.903,1.205 1.451,1.718 0.501,0.462 1.037,0.888 1.498,1.285 0.943,0.811 1.801,1.554 2.46,2.288 0.652,0.73 1.141,1.456 1.209,2.122 0.087,0.67 -0.268,1.172 -0.519,1.452 C 0.176,-0.125 0,0 0,0"
         style="fill:#837c74;fill-opacity:1;fill-rule:nonzero;stroke:none"
         id="path3870"
         inkscape:connector-curvature="0" />
    </g>
    <g
       id="g3872"
       transform="matrix(0.93216361,0,0,-0.75157856,84.09284,100.56732)">
      <path
         d="m 0,0 -0.514,0 c -0.552,0 -1,0.448 -1,1 0,0.552 0.448,1 1,1 L 0,2 C 0.553,2 1,1.552 1,1 1,0.448 0.553,0 0,0 M 6.674,0 6.161,0 c -0.553,0 -1,0.448 -1,1 0,0.552 0.447,1 1,1 l 0.513,0 c 0.553,0 1,-0.448 1,-1 0,-0.552 -0.447,-1 -1,-1 m 6.675,0 -0.514,0 c -0.553,0 -1,0.448 -1,1 0,0.552 0.447,1 1,1 l 0.514,0 c 0.552,0 1,-0.448 1,-1 0,-0.552 -0.448,-1 -1,-1 m 6.673,0 -0.512,0 c -0.553,0 -1,0.448 -1,1 0,0.552 0.447,1 1,1 l 0.512,0 c 0.553,0 1,-0.448 1,-1 0,-0.552 -0.447,-1 -1,-1 m 6.675,0 -0.513,0 c -0.553,0 -1,0.448 -1,1 0,0.552 0.447,1 1,1 l 0.513,0 c 0.553,0 1,-0.448 1,-1 0,-0.552 -0.447,-1 -1,-1 m 6.674,0 -0.513,0 c -0.552,0 -1,0.448 -1,1 0,0.552 0.448,1 1,1 l 0.513,0 c 0.553,0 1,-0.448 1,-1 0,-0.552 -0.447,-1 -1,-1 m 6.675,0 -0.514,0 c -0.553,0 -1,0.448 -1,1 0,0.552 0.447,1 1,1 l 0.514,0 c 0.553,0 1,-0.448 1,-1 0,-0.552 -0.447,-1 -1,-1 m 6.674,0 -0.513,0 c -0.553,0 -1,0.448 -1,1 0,0.552 0.447,1 1,1 l 0.513,0 c 0.552,0 1,-0.448 1,-1 0,-0.552 -0.448,-1 -1,-1 m 6.675,0 -0.514,0 c -0.553,0 -1,0.448 -1,1 0,0.552 0.447,1 1,1 l 0.514,0 c 0.552,0 1,-0.448 1,-1 0,-0.552 -0.448,-1 -1,-1 m 6.674,0 -0.513,0 c -0.553,0 -1,0.448 -1,1 0,0.552 0.447,1 1,1 l 0.513,0 c 0.553,0 1,-0.448 1,-1 0,-0.552 -0.447,-1 -1,-1 m 6.674,0 -0.514,0 c -0.552,0 -1,0.448 -1,1 0,0.552 0.448,1 1,1 l 0.514,0 c 0.553,0 1,-0.448 1,-1 0,-0.552 -0.447,-1 -1,-1 m 6.675,0 -0.514,0 c -0.552,0 -1,0.448 -1,1 0,0.552 0.448,1 1,1 l 0.514,0 c 0.553,0 1,-0.448 1,-1 0,-0.552 -0.447,-1 -1,-1 m 6.674,0 -0.514,0 c -0.553,0 -1,0.448 -1,1 0,0.552 0.447,1 1,1 l 0.514,0 c 0.553,0 1,-0.448 1,-1 0,-0.552 -0.447,-1 -1,-1 m 6.675,0 -0.514,0 c -0.553,0 -1,0.448 -1,1 0,0.552 0.447,1 1,1 l 0.514,0 c 0.552,0 1,-0.448 1,-1 0,-0.552 -0.448,-1 -1,-1 m 6.673,0 -0.513,0 c -0.553,0 -1,0.448 -1,1 0,0.552 0.447,1 1,1 l 0.513,0 c 0.553,0 1,-0.448 1,-1 0,-0.552 -0.447,-1 -1,-1 m 6.675,0 -0.513,0 c -0.553,0 -1,0.448 -1,1 0,0.552 0.447,1 1,1 l 0.513,0 c 0.553,0 1,-0.448 1,-1 0,-0.552 -0.447,-1 -1,-1 m 6.674,0 -0.513,0 c -0.552,0 -1,0.448 -1,1 0,0.552 0.448,1 1,1 l 0.513,0 c 0.553,0 1,-0.448 1,-1 0,-0.552 -0.447,-1 -1,-1 m 6.675,0 -0.514,0 c -0.553,0 -1,0.448 -1,1 0,0.552 0.447,1 1,1 l 0.514,0 c 0.553,0 1,-0.448 1,-1 0,-0.552 -0.447,-1 -1,-1 m 6.674,0 -0.513,0 c -0.553,0 -1,0.448 -1,1 0,0.552 0.447,1 1,1 l 0.513,0 c 0.552,0 1,-0.448 1,-1 0,-0.552 -0.448,-1 -1,-1 m 6.675,0 -0.514,0 c -0.553,0 -1,0.448 -1,1 0,0.552 0.447,1 1,1 l 0.514,0 c 0.552,0 1,-0.448 1,-1 0,-0.552 -0.448,-1 -1,-1 m 6.673,0 -0.512,0 c -0.553,0 -1,0.448 -1,1 0,0.552 0.447,1 1,1 l 0.512,0 c 0.553,0 1,-0.448 1,-1 0,-0.552 -0.447,-1 -1,-1 m 6.675,0 -0.514,0 c -0.552,0 -1,0.448 -1,1 0,0.552 0.448,1 1,1 l 0.514,0 c 0.553,0 1,-0.448 1,-1 0,-0.552 -0.447,-1 -1,-1 m 6.674,0 -0.513,0 c -0.552,0 -1,0.448 -1,1 0,0.552 0.448,1 1,1 l 0.513,0 c 0.553,0 1,-0.448 1,-1 0,-0.552 -0.447,-1 -1,-1 m 6.675,0 -0.514,0 c -0.553,0 -1,0.448 -1,1 0,0.552 0.447,1 1,1 l 0.514,0 c 0.552,0 1,-0.448 1,-1 0,-0.552 -0.448,-1 -1,-1 m 6.675,0 -0.514,0 c -0.553,0 -1,0.448 -1,1 0,0.552 0.447,1 1,1 l 0.514,0 c 0.552,0 1,-0.448 1,-1 0,-0.552 -0.448,-1 -1,-1 m 6.673,0 -0.513,0 c -0.553,0 -1,0.448 -1,1 0,0.552 0.447,1 1,1 l 0.513,0 c 0.553,0 1,-0.448 1,-1 0,-0.552 -0.447,-1 -1,-1 m 6.675,0 -0.513,0 c -0.553,0 -1,0.448 -1,1 0,0.552 0.447,1 1,1 l 0.513,0 c 0.553,0 1,-0.448 1,-1 0,-0.552 -0.447,-1 -1,-1 m 6.674,0 -0.514,0 c -0.552,0 -1,0.448 -1,1 0,0.552 0.448,1 1,1 l 0.514,0 c 0.553,0 1,-0.448 1,-1 0,-0.552 -0.447,-1 -1,-1 m 6.675,0 -0.514,0 c -0.553,0 -1,0.448 -1,1 0,0.552 0.447,1 1,1 l 0.514,0 c 0.553,0 1,-0.448 1,-1 0,-0.552 -0.447,-1 -1,-1 m 6.674,0 -0.514,0 c -0.553,0 -1,0.448 -1,1 0,0.552 0.447,1 1,1 l 0.514,0 c 0.552,0 1,-0.448 1,-1 0,-0.552 -0.448,-1 -1,-1 m 6.674,0 -0.513,0 c -0.553,0 -1,0.448 -1,1 0,0.552 0.447,1 1,1 l 0.513,0 c 0.553,0 1,-0.448 1,-1 0,-0.552 -0.447,-1 -1,-1 m 6.674,0 -0.512,0 c -0.553,0 -1,0.448 -1,1 0,0.552 0.447,1 1,1 l 0.512,0 c 0.553,0 1,-0.448 1,-1 0,-0.552 -0.447,-1 -1,-1 m 6.675,0 -0.514,0 c -0.552,0 -1,0.448 -1,1 0,0.552 0.448,1 1,1 l 0.514,0 c 0.553,0 1,-0.448 1,-1 0,-0.552 -0.447,-1 -1,-1 m 6.674,0 -0.513,0 c -0.553,0 -1,0.448 -1,1 0,0.552 0.447,1 1,1 l 0.513,0 c 0.553,0 1,-0.448 1,-1 0,-0.552 -0.447,-1 -1,-1 m 6.675,0 -0.514,0 c -0.553,0 -1,0.448 -1,1 0,0.552 0.447,1 1,1 l 0.514,0 c 0.552,0 1,-0.448 1,-1 0,-0.552 -0.448,-1 -1,-1 m 6.674,0 -0.513,0 c -0.553,0 -1,0.448 -1,1 0,0.552 0.447,1 1,1 l 0.513,0 c 0.552,0 1,-0.448 1,-1 0,-0.552 -0.448,-1 -1,-1 m 6.674,0 -0.513,0 c -0.553,0 -1,0.448 -1,1 0,0.552 0.447,1 1,1 l 0.513,0 c 0.553,0 1,-0.448 1,-1 0,-0.552 -0.447,-1 -1,-1 m 6.674,0 -0.513,0 c -0.552,0 -1,0.448 -1,1 0,0.552 0.448,1 1,1 l 0.513,0 c 0.553,0 1,-0.448 1,-1 0,-0.552 -0.447,-1 -1,-1"
         style="fill:#837c74;fill-opacity:1;fill-rule:nonzero;stroke:none"
         id="path3874"
         inkscape:connector-curvature="0" />
    </g>
    <g
       id="g3876"
       transform="matrix(0.93216361,0,0,-0.75157856,83.664681,25.459341)">
      <path
         d="m 0,0 -0.514,0 c -0.552,0 -1,0.448 -1,1 0,0.552 0.448,1 1,1 L 0,2 C 0.553,2 1,1.552 1,1 1,0.448 0.553,0 0,0 M 6.674,0 6.161,0 c -0.553,0 -1,0.448 -1,1 0,0.552 0.447,1 1,1 l 0.513,0 c 0.553,0 1,-0.448 1,-1 0,-0.552 -0.447,-1 -1,-1 m 6.675,0 -0.514,0 c -0.553,0 -1,0.448 -1,1 0,0.552 0.447,1 1,1 l 0.514,0 c 0.552,0 1,-0.448 1,-1 0,-0.552 -0.448,-1 -1,-1 m 6.673,0 -0.512,0 c -0.553,0 -1,0.448 -1,1 0,0.552 0.447,1 1,1 l 0.512,0 c 0.553,0 1,-0.448 1,-1 0,-0.552 -0.447,-1 -1,-1 m 6.675,0 -0.513,0 c -0.553,0 -1,0.448 -1,1 0,0.552 0.447,1 1,1 l 0.513,0 c 0.553,0 1,-0.448 1,-1 0,-0.552 -0.447,-1 -1,-1 m 6.674,0 -0.513,0 c -0.552,0 -1,0.448 -1,1 0,0.552 0.448,1 1,1 l 0.513,0 c 0.553,0 1,-0.448 1,-1 0,-0.552 -0.447,-1 -1,-1 m 6.675,0 -0.514,0 c -0.553,0 -1,0.448 -1,1 0,0.552 0.447,1 1,1 l 0.514,0 c 0.553,0 1,-0.448 1,-1 0,-0.552 -0.447,-1 -1,-1 m 6.674,0 -0.513,0 c -0.553,0 -1,0.448 -1,1 0,0.552 0.447,1 1,1 l 0.513,0 c 0.552,0 1,-0.448 1,-1 0,-0.552 -0.448,-1 -1,-1 m 6.675,0 -0.514,0 c -0.553,0 -1,0.448 -1,1 0,0.552 0.447,1 1,1 l 0.514,0 c 0.552,0 1,-0.448 1,-1 0,-0.552 -0.448,-1 -1,-1 m 6.674,0 -0.513,0 c -0.553,0 -1,0.448 -1,1 0,0.552 0.447,1 1,1 l 0.513,0 c 0.553,0 1,-0.448 1,-1 0,-0.552 -0.447,-1 -1,-1 m 6.674,0 -0.514,0 c -0.552,0 -1,0.448 -1,1 0,0.552 0.448,1 1,1 l 0.514,0 c 0.553,0 1,-0.448 1,-1 0,-0.552 -0.447,-1 -1,-1 m 6.675,0 -0.514,0 c -0.552,0 -1,0.448 -1,1 0,0.552 0.448,1 1,1 l 0.514,0 c 0.553,0 1,-0.448 1,-1 0,-0.552 -0.447,-1 -1,-1 m 6.674,0 -0.514,0 c -0.553,0 -1,0.448 -1,1 0,0.552 0.447,1 1,1 l 0.514,0 c 0.553,0 1,-0.448 1,-1 0,-0.552 -0.447,-1 -1,-1 m 6.675,0 -0.514,0 c -0.553,0 -1,0.448 -1,1 0,0.552 0.447,1 1,1 l 0.514,0 c 0.552,0 1,-0.448 1,-1 0,-0.552 -0.448,-1 -1,-1 m 6.673,0 -0.513,0 c -0.553,0 -1,0.448 -1,1 0,0.552 0.447,1 1,1 l 0.513,0 c 0.553,0 1,-0.448 1,-1 0,-0.552 -0.447,-1 -1,-1 m 6.675,0 -0.513,0 c -0.553,0 -1,0.448 -1,1 0,0.552 0.447,1 1,1 l 0.513,0 c 0.553,0 1,-0.448 1,-1 0,-0.552 -0.447,-1 -1,-1 m 6.674,0 -0.513,0 c -0.552,0 -1,0.448 -1,1 0,0.552 0.448,1 1,1 l 0.513,0 c 0.553,0 1,-0.448 1,-1 0,-0.552 -0.447,-1 -1,-1 m 6.675,0 -0.514,0 c -0.553,0 -1,0.448 -1,1 0,0.552 0.447,1 1,1 l 0.514,0 c 0.553,0 1,-0.448 1,-1 0,-0.552 -0.447,-1 -1,-1 m 6.674,0 -0.513,0 c -0.553,0 -1,0.448 -1,1 0,0.552 0.447,1 1,1 l 0.513,0 c 0.552,0 1,-0.448 1,-1 0,-0.552 -0.448,-1 -1,-1 m 6.675,0 -0.514,0 c -0.553,0 -1,0.448 -1,1 0,0.552 0.447,1 1,1 l 0.514,0 c 0.552,0 1,-0.448 1,-1 0,-0.552 -0.448,-1 -1,-1 m 6.673,0 -0.512,0 c -0.553,0 -1,0.448 -1,1 0,0.552 0.447,1 1,1 l 0.512,0 c 0.553,0 1,-0.448 1,-1 0,-0.552 -0.447,-1 -1,-1 m 6.675,0 -0.514,0 c -0.552,0 -1,0.448 -1,1 0,0.552 0.448,1 1,1 l 0.514,0 c 0.553,0 1,-0.448 1,-1 0,-0.552 -0.447,-1 -1,-1 m 6.674,0 -0.513,0 c -0.552,0 -1,0.448 -1,1 0,0.552 0.448,1 1,1 l 0.513,0 c 0.553,0 1,-0.448 1,-1 0,-0.552 -0.447,-1 -1,-1 m 6.675,0 -0.514,0 c -0.553,0 -1,0.448 -1,1 0,0.552 0.447,1 1,1 l 0.514,0 c 0.552,0 1,-0.448 1,-1 0,-0.552 -0.448,-1 -1,-1 m 6.675,0 -0.514,0 c -0.553,0 -1,0.448 -1,1 0,0.552 0.447,1 1,1 l 0.514,0 c 0.552,0 1,-0.448 1,-1 0,-0.552 -0.448,-1 -1,-1 m 6.673,0 -0.513,0 c -0.553,0 -1,0.448 -1,1 0,0.552 0.447,1 1,1 l 0.513,0 c 0.553,0 1,-0.448 1,-1 0,-0.552 -0.447,-1 -1,-1 m 6.675,0 -0.513,0 c -0.553,0 -1,0.448 -1,1 0,0.552 0.447,1 1,1 l 0.513,0 c 0.553,0 1,-0.448 1,-1 0,-0.552 -0.447,-1 -1,-1 m 6.674,0 -0.514,0 c -0.552,0 -1,0.448 -1,1 0,0.552 0.448,1 1,1 l 0.514,0 c 0.553,0 1,-0.448 1,-1 0,-0.552 -0.447,-1 -1,-1 m 6.675,0 -0.514,0 c -0.553,0 -1,0.448 -1,1 0,0.552 0.447,1 1,1 l 0.514,0 c 0.553,0 1,-0.448 1,-1 0,-0.552 -0.447,-1 -1,-1 m 6.674,0 -0.514,0 c -0.553,0 -1,0.448 -1,1 0,0.552 0.447,1 1,1 l 0.514,0 c 0.552,0 1,-0.448 1,-1 0,-0.552 -0.448,-1 -1,-1 m 6.674,0 -0.513,0 c -0.553,0 -1,0.448 -1,1 0,0.552 0.447,1 1,1 l 0.513,0 c 0.553,0 1,-0.448 1,-1 0,-0.552 -0.447,-1 -1,-1 m 6.674,0 -0.512,0 c -0.553,0 -1,0.448 -1,1 0,0.552 0.447,1 1,1 l 0.512,0 c 0.553,0 1,-0.448 1,-1 0,-0.552 -0.447,-1 -1,-1 m 6.675,0 -0.514,0 c -0.552,0 -1,0.448 -1,1 0,0.552 0.448,1 1,1 l 0.514,0 c 0.553,0 1,-0.448 1,-1 0,-0.552 -0.447,-1 -1,-1 m 6.674,0 -0.513,0 c -0.553,0 -1,0.448 -1,1 0,0.552 0.447,1 1,1 l 0.513,0 c 0.553,0 1,-0.448 1,-1 0,-0.552 -0.447,-1 -1,-1 m 6.675,0 -0.514,0 c -0.553,0 -1,0.448 -1,1 0,0.552 0.447,1 1,1 l 0.514,0 c 0.552,0 1,-0.448 1,-1 0,-0.552 -0.448,-1 -1,-1 m 6.674,0 -0.513,0 c -0.553,0 -1,0.448 -1,1 0,0.552 0.447,1 1,1 l 0.513,0 c 0.552,0 1,-0.448 1,-1 0,-0.552 -0.448,-1 -1,-1 m 6.674,0 -0.513,0 c -0.553,0 -1,0.448 -1,1 0,0.552 0.447,1 1,1 l 0.513,0 c 0.553,0 1,-0.448 1,-1 0,-0.552 -0.447,-1 -1,-1 m 6.674,0 -0.513,0 c -0.552,0 -1,0.448 -1,1 0,0.552 0.448,1 1,1 l 0.513,0 c 0.553,0 1,-0.448 1,-1 0,-0.552 -0.447,-1 -1,-1"
         style="fill:#837c74;fill-opacity:1;fill-rule:nonzero;stroke:none"
         id="path3878"
         inkscape:connector-curvature="0" />
    </g>
    <g
       id="g3880"
       transform="matrix(0.93216361,0,0,-0.75157856,84.54615,97.498255)">
      <path
         d="M 0,0 C 0,0 15.542,0.112 38.854,0.28 50.511,0.325 64.109,0.377 78.68,0.433 93.25,0.454 108.792,0.477 124.333,0.5 139.875,0.477 155.417,0.455 169.987,0.434 184.558,0.378 198.156,0.326 209.812,0.281 233.125,0.113 248.667,0 248.667,0 c 0,0 -15.542,-0.113 -38.855,-0.281 C 198.156,-0.326 184.558,-0.378 169.987,-0.434 155.417,-0.455 139.875,-0.477 124.333,-0.5 108.792,-0.477 93.25,-0.454 78.68,-0.433 64.109,-0.377 50.511,-0.325 38.854,-0.28 15.542,-0.112 0,0 0,0"
         style="fill:#837c74;fill-opacity:1;fill-rule:nonzero;stroke:none"
         id="path3882"
         inkscape:connector-curvature="0" />
    </g>
    <g
       id="g3884"
       transform="matrix(0.93216361,0,0,-0.75157856,84.117991,27.275531)">
      <path
         d="M 0,0 C 0,0 15.542,0.112 38.854,0.28 50.511,0.325 64.109,0.377 78.68,0.433 93.25,0.454 108.792,0.477 124.333,0.5 139.875,0.477 155.417,0.455 169.987,0.434 184.558,0.378 198.156,0.326 209.812,0.281 233.125,0.113 248.667,0 248.667,0 c 0,0 -15.542,-0.113 -38.855,-0.281 C 198.156,-0.326 184.558,-0.378 169.987,-0.434 155.417,-0.455 139.875,-0.477 124.333,-0.5 108.792,-0.477 93.25,-0.454 78.68,-0.433 64.109,-0.377 50.511,-0.325 38.854,-0.28 15.542,-0.112 0,0 0,0"
         style="fill:#837c74;fill-opacity:1;fill-rule:nonzero;stroke:none"
         id="path3886"
         inkscape:connector-curvature="0" />
    </g>
    <text
       xml:space="preserve"
       style="font-style:normal;font-variant:normal;font-weight:normal;font-stretch:normal;font-size:47.55476379px;line-height:125%;font-family:Matilde;-inkscape-font-specification:Matilde;letter-spacing:0px;word-spacing:0px;fill:#000000;fill-opacity:1;stroke:none;stroke-width:1px;stroke-linecap:butt;stroke-linejoin:miter;stroke-opacity:1"
       x="100.91254"
       y="93.809532"
       id="text3396"
       sodipodi:linespacing="125%"
       transform="scale(1.079473,0.92637796)"><tspan
         sodipodi:role="line"
         id="tspan3398"
         x="100.91254"
         y="93.809532">EMMA &amp; JACOB</tspan></text>
    <path
       style="fill:none"
       d="m 201.57795,69.344373 0,-5.25 3.74385,0 c 2.29591,0 4.00003,0.05436 4.40625,0.140548 1.38739,0.294375 2.66327,1.210783 3.22983,2.319857 0.28299,0.553973 0.31074,0.764571 0.34725,2.634941 0.0378,1.936335 0.0251,2.064637 -0.26689,2.702501 -0.62725,1.370084 -1.91955,2.315811 -3.52279,2.578036 -0.4125,0.06747 -2.36719,0.122995 -4.34375,0.123393 l -3.59375,7.24e-4 0,-5.25 z"
       id="path3395"
       inkscape:connector-curvature="0"
       transform="translate(77.204171,11.965299)" />
    <path
       style="fill:none"
       d="m 90.700744,63.625623 c -0.0035,-0.14855 3.932371,-15.017751 3.966226,-14.983896 0.01673,0.01673 0.904239,3.345732 1.97224,7.397783 1.068002,4.05205 1.967488,7.437676 1.998858,7.523613 0.04487,0.122932 -0.795094,0.15625 -3.939041,0.15625 -2.197842,0 -3.99707,-0.04219 -3.998283,-0.09375 z"
       id="path3397"
       inkscape:connector-curvature="0"
       transform="translate(77.204171,11.965299)" />
    <path
       style="fill:none"
       d="M 118.01545,74.507178 C 115.959,74.234427 114.1346,73.020415 113.2469,71.334039 l -0.35645,-0.677166 0,-2.5625 c 0,-2.561773 1e-4,-2.562687 0.34813,-3.223238 0.70829,-1.344303 2.01334,-2.410584 3.58035,-2.925288 0.76611,-0.251636 1.12783,-0.273391 5.36275,-0.32252 l 4.54123,-0.05268 -0.046,4.355615 c -0.0443,4.200625 -0.0563,4.381488 -0.3346,5.082743 -0.67913,1.710947 -2.72465,3.182513 -4.80468,3.45655 -0.94078,0.123944 -2.74114,0.145221 -3.52221,0.04163 z"
       id="path3399"
       inkscape:connector-curvature="0"
       transform="translate(77.204171,11.965299)" />
    <path
       style="fill:none"
       d="m 156.26393,63.125623 c 0.0949,-0.326562 0.99475,-3.713845 1.99972,-7.527295 1.00497,-3.813451 1.84149,-6.947811 1.85892,-6.965246 0.0344,-0.0344 3.95989,14.838401 3.95708,14.992541 -9.3e-4,0.05156 -1.79867,0.09375 -3.99496,0.09375 l -3.99326,0 0.1725,-0.59375 z"
       id="path3401"
       inkscape:connector-curvature="0"
       transform="translate(77.204171,11.965299)" />
    <path
       style="fill:none"
       d="m 189.01545,74.408693 c -1.84295,-0.407426 -3.42284,-1.564381 -4.18453,-3.06432 -0.47293,-0.931305 -0.50302,-1.537976 -0.50102,-10.099902 0.002,-9.042254 0.0126,-9.200641 0.68761,-10.352398 1.2071,-2.059757 3.53558,-3.041323 6.8355,-2.88149 2.92202,0.14153 4.80266,1.242695 5.8153,3.405024 l 0.34714,0.741266 0,9.125 0,9.125 -0.40349,0.851882 c -0.74977,1.582985 -2.3056,2.742717 -4.22151,3.146753 -1.07301,0.226282 -3.35833,0.227945 -4.375,0.0032 l 0,-3e-6 z"
       id="path3403"
       inkscape:connector-curvature="0"
       transform="translate(77.204171,11.965299)" />
    <path
       style="fill:none"
       d="m 201.57795,55.840937 0,-7.901803 2.71875,0.06085 c 2.31822,0.05189 2.83978,0.09988 3.54027,0.325774 1.65332,0.533168 2.87941,1.590988 3.58134,3.089848 l 0.34714,0.741266 0,4.3125 0,4.3125 -0.3068,0.600544 c -0.42127,0.824605 -1.30659,1.616648 -2.19952,1.96778 -0.7027,0.276323 -0.93484,0.295196 -4.21243,0.342491 l -3.46875,0.05005 0,-7.901803 z"
       id="path3405"
       inkscape:connector-curvature="0"
       transform="translate(77.204171,11.965299)" />
    <path
       style="fill:none"
       d="m 201.57795,69.344373 0,-5.25 3.74385,0 c 2.29591,0 4.00003,0.05436 4.40625,0.140548 1.38739,0.294375 2.66327,1.210783 3.22983,2.319857 0.28299,0.553973 0.31074,0.764571 0.34725,2.634941 0.0378,1.936335 0.0251,2.064637 -0.26689,2.702501 -0.62725,1.370084 -1.91955,2.315811 -3.52279,2.578036 -0.4125,0.06747 -2.36719,0.122995 -4.34375,0.123393 l -3.59375,7.24e-4 0,-5.25 z"
       id="path3407"
       inkscape:connector-curvature="0"
       transform="translate(77.204171,11.965299)" />
    <g
       id="g5978"
       transform="matrix(0.71791914,0,0,0.76429545,44.217314,15.581841)">
      <g
         style="fill:#535d6c"
         transform="matrix(0.32313153,0,0,-0.38670923,237.55354,45.520486)"
         id="g3980">
        <path
           sodipodi:nodetypes="ccccccccccccccccccscccccccscccccccccccccccccccccccccccccccscccccccc"
           inkscape:connector-curvature="0"
           id="path3982"
           style="fill:#535d6c;fill-opacity:1;fill-rule:nonzero;stroke:none"
           d="m -0.14677199,-1.1484817 c -1.09599991,-0.548 -1.82480051,-0.8205196 -2.96080051,-1.2645196 -0.323,-0.074 -1.0501994,-0.3758505 -1.3641994,-0.4328505 -3.596,-0.662 -5.9346011,-0.837442 -10.9666691,-1.4389862 -4.910226,0.035869 -7.885754,0.1198487 -13.554206,1.1664035 -10.474,1.054 -20.584577,6.689623 -30.599577,9.794623 -2.336,0.725 -5.039151,2.0654414 -6.731151,3.9324415 -1.112,1.226 -2.682824,1.996149 -3.982824,3.013149 -1.182,0.925 -5.464578,4.364702 -6.054578,6.672702 0.129,0.07 1.980777,-0.467481 2.072777,-0.335481 -2.072777,0.335481 0.011,-0.026 0.017,-0.042 0.04,0.067 -1.070518,0.60986 -1.027518,0.67286 0.136,0.09 -0.945518,0.687861 -0.897518,0.807861 1.699,1.802 8.028036,0.804279 10.159036,1.022279 3.403,0.348 6.872,0.564 10.286,0.754 0.138,0.007 0.254,0.06 0.355,0.131 5.091,-0.065 10.182,-0.533 15.205,-1.295 5.656,-0.859 11.651375,-1.76326 17.045375,-3.71826 4.473035,-1.620665 10.456141,-4.090971 15.279384,-6.403529 4.0306218,-1.9325278 7.01787767,-3.9011583 9.8540147,-3.7823742 0.185,-0.189 1.4974987,-1.5741425 1.4974987,-1.5741425 -0.022,-1.234 -1.4580955,-4.1889231 -1.5480955,-5.4089231 C 1.5631769,0.73277123 1.070627,0.03418042 0.65762698,-0.31381958 M 6.601,9.554 C 6.538,9.463 6.472,9.375 6.411,9.282 6.314,9.491 6.216,9.704 6.106,9.901 4.8,13.04 2.573,16.01 0.701,17.882 0.3,18.283 -0.308,17.703 0.065,17.277 1.06,16.141 1.907,14.99 2.618,13.77 3.537,12.749 4.304,11.602 4.795,10.268 5.045,9.584 4.12,9.213 3.659,9.617 c -2.312,2.026 -4.191,4.372 -6.783,6.091 -0.251,0.167 -0.395,0.393 -0.457,0.631 -1.404,0.876 -2.92,1.6 -4.387,2.266 -1.769,0.803 -3.413,1.797 -5.216,2.538 -1.173,0.482 -2.112,1.296 -3.378,1.242 -0.266,-0.011 -0.451,-0.339 -0.239,-0.546 2,-1.965 4.944199,-2.357299 7.2001995,-4.043299 1.411,-1.056 3.2481752,-1.958221 4.7871752,-2.854221 1.044,-0.606 2.0642749,-1.44011 3.0682749,-2.08811 -0.309,-0.247 0.040749,-0.89448 0.3817494,-1.26848 0.135,-0.147 -0.7384987,-0.794072 -0.6084987,-0.932072 -6.986,4.563 -15.4320993,7.34041 -23.3090993,9.91141 -6.145,2.006 -12.628526,2.87648 -19.041526,3.52248 -4.532,0.456 -9.023,0.70048 -13.474,0.33348 -1.528,0.266 -3.14355,-0.192181 -4.75855,-0.145181 -2.57,0.075 -5.008,-0.308779 -7.546,-0.530779 -1.079,-0.095 -2.295725,0.605772 -3.377725,0.08177 -0.11,0.077 -0.25,0.127 -0.437,0.114 -0.366,-0.026 -0.685,-0.096 -0.97,-0.201 0.034,0.1 0.079,0.203 0.125,0.306 -0.113,-0.087 -0.229,-0.172 -0.351,-0.249 -0.238,-0.153 -0.558,0.039 -0.56,0.313 -0.014,2.033 1.683,3.895 3.437,5.233 -2.591,0.801 -4.779,-1.625 -5.905,-3.812 -0.271,-0.533 -0.46,-1.071 -0.579,-1.61 -0.68,-1.029 -0.855,-2.641 -0.67,-3.686 0.312,-1.77 1.349,-3.224 2.664,-4.389 0.471,-0.91 1.123,-1.753 1.852,-2.504 1.127,-1.161 2.521,-2.12 3.793,-3.112 1.513,-1.178 2.687,-2.647 4.366,-3.574 4.351,-2.402 9.383,-3.544 14.121,-4.905 9.675,-2.781 19.205463,-7.0092405 29.302463,-7.4572405 4.546401,-0.7179894 14.6958421,-0.9454662 21.6526896,1.1473818 0.73399996,0.181 1.52999996,0.438 2.31599996,0.773 2.42700004,2.083 3.34634874,4.8453001 5.07034874,7.5383001 0.128,2.11 1.0984987,3.6605586 0.8524987,5.8025586" />
      </g>
      <g
         style="fill:#535d6c"
         transform="matrix(0.31079105,0,0,-0.33696271,237.00126,49.912598)"
         id="g3984">
        <path
           sodipodi:nodetypes="cscccccscscccccccccccccccccccccccccccccccccc"
           inkscape:connector-curvature="0"
           id="path3986"
           style="fill:#535d6c;fill-opacity:1;fill-rule:nonzero;stroke:none"
           d="m 0,0 c -6.51,-1.989 -26.267696,-1.6063497 -29.544696,-0.80634972 -3.535,0.863 -7.686803,1.75760949 -11.201803,2.68860952 C -47.697499,3.7232598 -53.783,5.752 -60.422,8.528 c -3.297,1.38 -11.206408,4.680992 -12.749408,5.455992 -2.371,1.193 -5.755592,4.170008 -7.800592,5.899008 -3.853,3.257 -8.924597,11.472407 -7.558597,19.289407 1.365,7.818 8.144597,10.768593 12.832597,12.259593 4.685,1.49 12.445,2.403 15.745,2.662 4.358,0.343 21.14,-0.651 28.156,-2 7.016,-1.349 20.624,-4.841 29.947,-9.464 C 1.784,40.827 5.5890809,38.932441 8.6660809,36.271441 11.932081,33.446441 13.683,29.386 15.593,25.528 c 0.049,-0.098 0.112,-0.178 0.179,-0.25 0.909,-3.491 2.228686,-4.739065 1.613686,-8.272065 -0.062,-0.352 -1.122042,-2.560951 -1.012042,-2.862951 C 13.040644,7.5149838 7.004,2.14 0,0 m 18.99,13.544 c 0.104,0.247 0.208,0.505 0.313,0.765 0.839,1.331 0.600555,3.325252 0.770555,4.939252 0.095,0.392 -0.101398,0.719423 -0.0264,1.115423 -0.052,0.188 -0.292749,1.260293 -0.347749,1.448293 0,0.897 -0.883644,2.01452 -0.994644,2.86152 -0.807246,2.048423 -1.003801,2.44026 -1.805853,4.343414 -0.588,0.933 -1.440196,2.385314 -2.017527,3.181461 -0.505508,0.673626 0.745762,-1.029408 -0.517601,0.814399 -0.199,0.314 -0.384176,0.599815 -0.605176,0.903815 -0.372356,0.474407 0,0 -0.663987,0.807905 -2.914,3.573 -7.2181124,5.929534 -10.7281124,8.192534 -9.364,6.04 -20.1645026,7.499537 -30.6905026,10.544537 -10.083094,1.936861 -20.430356,2.83065 -27.129356,2.68665 -6.701,-0.142 -15.013413,-1.179903 -20.918413,-2.655903 -5.906,-1.474 -12.404796,-7.195666 -12.957796,-8.280666 -2.324,-3.661 -1.771356,-6.99152 -1.613356,-11.37352 -0.094,-1.774 0.724545,-3.206114 0.971545,-4.955114 0.96,-2.34 1.599754,-4.327691 2.925754,-6.473691 2.849,-2.944 2.599486,-3.854469 5.515486,-6.112469 1.165745,-1.174554 3.393857,-3.141281 6.123372,-4.448239 1.60545,-1.003221 3.736175,-2.0356449 5.439175,-2.7276443 8.669451,-4.4036621 15.256985,-6.5934143 25.451034,-9.42589471 4.766199,-1.45648049 9.00155,-1.71806199 13.42155,-2.67906199 4.058,-0.881 19.735351,-0.6448048 23.8113508,-0.5848048 3.698,0.056 6.9641045,0.8659431 10.4071045,2.3319431 C 9.9564553,1.6711383 16.066,6.622 18.99,13.544" />
      </g>
      <g
         style="fill:#535d6c"
         transform="matrix(0.32313153,0,0,-0.38670923,221.96781,33.609185)"
         id="g3988">
        <path
           sodipodi:nodetypes="cccccccsccccc"
           inkscape:connector-curvature="0"
           id="path3990"
           style="fill:#535d6c;fill-opacity:1;fill-rule:nonzero;stroke:none"
           d="M 0,0 C 1.343,0.166 3.065,-0.685 4.377,-0.9 6.281,-1.213 8.196,-1.429 10.096,-1.782 14,-2.51 17.861,-3.2421494 21.695,-4.2721494 25.537,-5.3031494 29.39,-6.572 33.212,-7.669 c 3.443,-0.987 6.561,-3.569 10.05,-4.047 0.466,-0.065 0.641,0.562 0.377,0.858 -2.152,2.4 -5.801,3.676 -8.808,4.637 -4.146,1.325 -8.436,2.279 -12.639,3.426 -3.902,1.063 -7.885,1.823 -11.89,2.392 C 8.347,-0.126 6.493,0.058 4.517,0.052 2.905,0.045 1.504,0.647 -0.019,0.064 -0.057,0.049 -0.042,-0.006 0,0" />
      </g>
      <path
         transform="translate(77.204171,11.965299)"
         inkscape:connector-curvature="0"
         id="path5959"
         d="m 151.20295,38.262943 c -0.20625,-0.03242 -1.275,-0.287412 -2.375,-0.566642 -3.50865,-0.890654 -6.60009,-2.05493 -10.81467,-4.072943 -2.15596,-1.032307 -4.02737,-2.820392 -4.94196,-4.721905 -1.05264,-2.188522 -1.04777,-4.420845 0.0132,-6.026101 1.03552,-1.566838 3.12821,-2.456003 6.99348,-2.971466 1.64584,-0.219485 3.27437,-0.185682 6.66512,0.138346 2.50017,0.238922 4.13084,0.56169 6.58141,1.302696 4.2812,1.294556 7.67824,2.984676 9.28995,4.622015 1.09202,1.109379 2.52065,4.300796 2.52441,5.639277 0.005,1.87331 -2.00191,4.611492 -4.244,5.789677 -1.39686,0.73403 -2.1113,0.840559 -5.94189,0.88598 -1.85625,0.02201 -3.54375,0.01349 -3.75,-0.01893 z m 6.62438,-2.424876 c 1.445,-0.20881 2.56709,-0.596501 2.96771,-1.02537 0.77486,-0.829489 1.70396,-3.25319 1.71602,-4.476469 0.008,-0.792083 -1.62634,-3.741855 -2.07295,-3.741855 -0.27473,0 -0.21376,0.15756 0.5023,1.298108 0.37122,0.591294 0.73349,1.242994 0.80503,1.448223 0.20866,0.598568 -0.0694,0.591376 -0.57891,-0.01497 -1.2728,-1.514755 -2.12346,-2.27301 -3.39961,-3.030307 -2.66326,-1.580451 -2.87647,-1.67402 -2.87647,-1.262365 0,0.191653 0.4146,0.51122 1.59118,1.226447 1.40703,0.855317 3.15669,2.220373 3.23235,2.52183 0.13982,0.557079 -0.006,0.545178 -0.94853,-0.07749 -2.06849,-1.366302 -6.16549,-3.164718 -8.61918,-3.783471 -2.60748,-0.657533 -4.54452,-0.873534 -7.69332,-0.85789 -1.58125,0.0079 -3.27143,0.0678 -3.75595,0.133204 -0.48453,0.0654 -1.28609,0.08993 -1.78125,0.0545 -0.77954,-0.05578 -0.9003,-0.09636 -0.9003,-0.302599 0,-0.32311 0.41398,-1.11199 0.7367,-1.403848 0.33937,-0.30692 0.33367,-0.449493 -0.018,-0.448909 -0.73525,0.0012 -1.46099,0.850603 -1.90655,2.231371 -0.32022,0.992366 -0.21266,1.854818 0.33351,2.6741 0.24073,0.361109 0.5412,0.825311 0.6677,1.031561 0.12651,0.20625 0.83034,0.968175 1.56408,1.693165 1.61207,1.592857 2.17265,1.909294 5.37251,3.032672 1.27187,0.446517 3.12812,1.123545 4.125,1.504503 2.33132,0.890923 3.75771,1.295664 5.3125,1.507434 1.51317,0.206101 4.42637,0.24154 5.62438,0.06842 z m 1.06312,-9.854148 c 0,-0.35851 -0.93473,-1.125955 -1.92541,-1.580827 -1.4461,-0.663976 -5.69264,-2.005028 -7.69959,-2.43152 -1.32639,-0.281868 -4.18537,-0.556895 -4.40137,-0.423401 -0.16797,0.10381 0.57545,0.312586 2.58887,0.727042 3.25158,0.669326 7.50562,2.037209 9.05147,2.910487 1.88677,1.065873 2.38603,1.232894 2.38603,0.798219 z"
         style="fill:#fffaed;fill-opacity:1" />
    </g>
  </g>
  <g
     inkscape:groupmode="layer"
     id="layer2"
     inkscape:label="Layer 2"
     transform="translate(-0.35649194,-11.990885)">
    <a
       id="a5987"
       transform="translate(-6.7733427,4.2779006)"
       onmouseover="">
      <g
         transform="matrix(0.67930457,0,0,0.75118726,32.143967,9.6275618)"
         id="g5969">
        <g
           id="g5950"
           transform="translate(-41.579171,-14.840299)">
          <path
             sodipodi:nodetypes="cccccccccccccccccccccccccccccccccccccccccccccccccccccccccccccccccc"
             d="m 182.44092,36.500541 c -0.1764,0.415806 -0.29142,0.768864 -0.49874,1.163085 -0.0693,0.09619 -0.18348,0.235435 -0.25378,0.324807 -0.80257,1.022098 -1.56103,1.882777 -2.57806,2.577304 -1.17489,0.802455 -2.39814,1.788436 -3.56034,2.615126 -2.92321,2.078278 -6.11903,3.417834 -9.32669,4.772047 -0.74821,0.315831 -2.08406,0.93622 -2.9786,0.870991 -0.52951,-0.115881 -1.30442,-0.04897 -1.84207,-0.05843 -0.48817,-0.0088 -1.91324,-0.248594 -2.51988,-0.810577 0.0196,-0.05037 0.1579,-0.266728 0.15563,-0.327698 0.004,0.0027 -0.25775,0.04959 -0.2532,0.0526 -0.003,-0.02916 0.0358,-0.321721 0.0346,-0.350882 0.0176,-0.05795 0.0446,-0.149709 0.0332,-0.196667 0.0866,-0.932726 1.00588,-1.984322 1.51554,-2.537594 0.81396,-0.883874 1.90293,-1.595258 2.75106,-2.433688 0.0341,-0.03371 0.0947,-0.09405 0.10698,-0.138364 1.33338,-1.145551 2.61123,-2.258518 4.0634,-3.177612 1.63573,-1.035351 3.37675,-2.344861 5.15959,-2.98902 2.71426,-0.9812 6.35019,-2.473959 9.2184,-1.977113 0.0852,0.01477 0.74183,0.344632 0.81604,0.365081 0.23693,0.37756 0.0481,1.096343 0.0579,1.574099 -0.0205,0.20336 -0.0622,0.471873 -0.10089,0.671446 m -0.27783,-4.459523 c 0.002,0.04165 0.002,0.08331 0.004,0.124968 -0.0664,-0.04053 -0.13343,-0.08218 -0.20079,-0.116638 -0.95619,-0.648325 -2.1174,-1.034973 -2.97107,-1.171682 -0.1829,-0.02916 -0.22651,0.285158 -0.0462,0.328329 0.48167,0.115122 0.92755,0.268493 1.35194,0.474126 0.43903,0.09771 0.79443,0.490586 1.184,0.780666 0.19951,0.148828 0.10148,0.576255 -0.0977,0.559971 -0.99784,-0.08218 -1.94653,-0.685874 -2.95673,-0.61165 -0.0976,0.0072 -0.17932,-0.02839 -0.24247,-0.08558 -0.53634,0.0568 -1.07203,0.184804 -1.58332,0.319619 -0.6164,0.162839 -1.23835,0.238956 -1.8515,0.427925 -0.39933,0.123076 -0.80257,0.09202 -1.12053,0.398387 -0.0667,0.064 -0.0502,0.204875 0.0455,0.219264 0.90508,0.134816 1.77378,-0.528752 2.69089,-0.536325 0.57313,-0.0041 1.18375,-0.15194 1.75948,-0.234117 0.38956,-0.05605 0.76403,0.153927 1.15197,0.119844 -0.0319,0.145041 0.0333,-0.0061 0.19507,0.02872 0.0641,0.01363 0.11118,0.350349 0.17269,0.362088 -2.70906,0.221915 -5.45751,1.172439 -8.0058,2.199081 -1.98787,0.800562 -3.92138,2.180905 -5.71169,3.453319 -1.2647,0.899779 -2.44089,1.909379 -3.52302,3.038647 -0.44847,0.269253 -0.87872,0.558197 -1.30702,0.913791 -0.68117,0.565392 -1.18301,1.322782 -1.79747,1.970728 -0.26166,0.275312 -0.53634,0.647947 -0.71371,1.05353 -0.0437,0.0019 -0.0902,0.01894 -0.13572,0.06552 -0.0902,0.09164 -0.15882,0.18594 -0.2122,0.282506 -0.0107,-0.03824 -0.0192,-0.07952 -0.0276,-0.120804 -0.0124,0.05226 -0.0258,0.104153 -0.0423,0.155265 -0.0312,0.100347 -0.37181,0.314551 -0.42616,0.232374 -0.40388,-0.610078 -0.10985,-1.758893 0.0818,-2.563619 -0.82957,0.350671 -0.91972,1.583322 -0.78141,2.500901 0.0341,0.223051 0.0911,0.428304 0.16631,0.618408 0.0258,0.466174 0.29746,0.992559 0.55099,1.265598 0.42894,0.462766 0.98384,0.664231 1.55404,0.714597 0.30104,0.167006 0.6356,0.272283 0.97245,0.332116 0.52071,0.09241 1.07041,0.06286 1.59569,0.07081 0.62422,0.0095 1.21752,0.184045 1.8349,0.07952 1.60057,-0.270767 3.22964,-1.154727 4.72606,-1.828426 3.056,-1.374663 5.99303,-2.781806 8.6995,-4.957029 1.91561,-1.539016 4.1007,-2.489919 5.61372,-4.656811 0.15459,-0.222294 0.23315,-0.4817 0.37114,-0.763071 0.22,-1.184178 0.40474,-2.353966 0.32208,-3.561247 -0.38176,-0.666123 -0.80518,-1.29362 -1.29043,-1.883627"
             style="fill:#535d6c;fill-opacity:1;fill-rule:nonzero;stroke:none"
             id="path4006"
             inkscape:connector-curvature="0" />
          <g
             style="fill:#535d6c"
             transform="matrix(0.31079105,0,0,-0.33696271,185.58201,41.093856)"
             id="g4008">
            <path
               inkscape:connector-curvature="0"
               id="path4010"
               style="fill:#535d6c;fill-opacity:1;fill-rule:nonzero;stroke:none"
               d="m 0,0 c -3.985,-5.518 -19.492014,-16.074539 -22.588014,-17.417539 -3.338,-1.448 -6.355914,-4.224927 -9.719914,-5.606927 -6.652,-2.733 -13.259049,-5.710586 -20.227049,-7.508586 -3.46,-0.893 -13.52344,-4.091301 -15.22144,-4.405301 -2.611,-0.482 -10.637328,0.541421 -13.354719,0.606226 -5.038,0.266 -10.737811,4.265759 -14.372811,11.319759 -3.637,7.053 -1.329852,13.7270975 1.505148,17.7470975 1.136394,3.7062182 8.33683,9.7868796 12.335875,12.4560523 3.782308,4.5107482 18.137751,12.6922312 24.490803,15.8881732 6.406,3.164 19.698121,7.823045 29.920121,9.772045 3.985,0.759 8.267,0.93 12.327,0.67 4.31,-0.278 8.051,-1.838 11.905,-3.758 0.099,-0.049 0.197,-0.075 0.294,-0.09 C 0.127,27.44 1.909,24.097 3.554,20.91 3.718,20.592 3.956,20.347 4.226,20.172 5.575,12.877 4.288,5.937 0,0 M 6.948,22.267 C 6.882,22.526 6.809,22.794 6.735,23.065 6.6,24.633 6,26.147 5.16,27.535 c -0.161,0.37 -0.328,0.736 -0.508,1.097 -0.155,0.118 -0.318,0.229 -0.475,0.346 -0.542,0.714 -1.131,1.382 -1.732,1.99 -1.496,1.519 -3.537,2.768 -5.501,3.503 -1.033,0.386 -2.34,0.953 -3.403,1.045 -0.287,0.025 -0.744,-0.01 -1.18,0.011 -0.348,0.13 -0.699,0.252 -1.058,0.361 -0.321,0.367 -0.801,0.448 -1.216,0.334 -4.48,1.087 -9.495,0.864 -13.66,0.546 C -34.684,35.923 -44.692,30.658 -54.92,26.725 -63.956,23.249 -73.996,16.716 -79.247,12.554 -84.5,8.392 -91.791,1.19 -95.605,-3.554 c -3.816,-4.743 -4.271,-13.956 -4.055,-15.155 0.359,-4.322 2.022,-6.952 4.796,-10.348 0.996,-1.47 2.117,-2.83 3.371,-4.074 2.179,-1.285 4.472,-2.369 6.826,-3.277 4.049,-0.625 8.158,-0.771 11.846,-0.808 1.834,-0.018 3.665,0.032 5.494,0.112 1.798,0.454 3.586,0.953 5.361,1.43 9.145,2.455 18.002,5.425 26.843,8.807 4.245,1.624 8.047,3.796 12.149,5.702 3.766,1.749 16.557,11.004 19.769,13.516 2.913,2.278 5.634,5.153 7.492,8.401 3.688,6.446 4.514,14.233 2.661,21.515"
               sodipodi:nodetypes="cscccccccccccccccccccccccccccccccccccccccccc" />
          </g>
          <g
             style="fill:#535d6c"
             transform="matrix(0.31079105,0,0,-0.33696271,164.91866,37.758498)"
             id="g4012">
            <path
               inkscape:connector-curvature="0"
               id="path4014"
               style="fill:#535d6c;fill-opacity:1;fill-rule:nonzero;stroke:none"
               d="m 0,0 c 0.97,0.943 2.857,1.306 4.031,1.927 1.707,0.901 3.363,1.887 5.09,2.753 3.551,1.779 7.21,3.344 10.888,4.84 3.683,1.5 7.38,3.001 11.089,4.436 3.34,1.294 7.384,1.121 10.453,2.848 0.41,0.23 0.171,0.836 -0.218,0.911 -3.165,0.613 -6.844,-0.575 -9.82,-1.626 C 27.409,14.64 23.413,12.807 19.372,11.182 15.62,9.671 11.987,7.87 8.452,5.903 6.727,4.942 5.139,3.969 3.567,2.77 2.287,1.791 0.807,1.424 -0.054,0.04 -0.075,0.004 -0.03,-0.03 0,0" />
          </g>
        </g>
        <path
           style="fill:#fffaed;fill-opacity:1"
           d="m 196.75364,49.802851 c -0.60004,-0.05333 -1.30317,-0.16442 -1.5625,-0.246866 -2.16016,-0.686745 -4.16518,-3.635813 -4.15596,-6.11275 0.004,-1.109255 0.17002,-1.757713 0.76074,-2.97358 0.6535,-1.345086 1.41892,-2.34686 2.58327,-3.380932 0.52116,-0.462853 1.38559,-1.240453 1.92095,-1.727999 1.16757,-1.063293 3.07118,-2.415951 5.35948,-3.808317 2.32133,-1.412461 3.89436,-2.125807 7.06,-3.201611 4.98337,-1.693536 7.86487,-1.848684 10.59278,-0.570343 1.23022,0.576498 1.75077,1.115552 2.64077,2.734648 l 0.60855,1.107071 0.009,1.5 c 0.0109,1.78006 -0.18326,2.652065 -0.92978,4.174949 -0.41049,0.83741 -0.73298,1.267769 -1.59311,2.12599 -1.2802,1.277364 -3.39915,2.988896 -4.93145,3.983266 -0.60667,0.393688 -1.67855,1.090354 -2.38197,1.548148 -2.1355,1.389814 -4.95026,2.579979 -9.52537,4.02762 -3.31321,1.048356 -3.55227,1.078747 -6.45562,0.820706 l 1e-5,0 z m 3.77848,-3.260434 c 0.97098,-0.316785 4.26516,-1.801171 6.67037,-3.005723 2.14136,-1.072412 3.55792,-1.943108 5.43843,-3.342759 0.79954,-0.595089 1.98808,-1.445142 2.6412,-1.889008 1.39364,-0.94712 2.86178,-2.359282 3.25583,-3.131675 0.30043,-0.588897 0.61686,-2.374953 0.61829,-3.489914 7.5e-4,-0.609136 -0.0639,-0.785442 -0.55927,-1.523816 -0.63742,-0.950174 -1.48253,-1.506298 -2.98427,-1.963794 -1.02385,-0.311913 -1.23705,-0.324039 -1.18349,-0.06731 0.0235,0.112789 0.40185,0.319769 0.90543,0.495357 0.90459,0.315411 1.73147,0.880626 1.8004,1.23066 0.0546,0.277248 -0.27178,0.264329 -1.24803,-0.0494 -0.43582,-0.140054 -1.20398,-0.289084 -1.70704,-0.331178 -0.50307,-0.04209 -0.84643,-0.118701 -0.76304,-0.17024 0.0848,-0.05244 0.11478,-0.189712 0.068,-0.311705 -0.0721,-0.18782 -0.20005,-0.208155 -0.92446,-0.146892 -1.22403,0.103514 -3.92453,1.156653 -7.2669,2.833929 -1.96423,0.9857 -4.76142,2.819481 -4.76142,3.121498 0,0.112332 1.51973,-0.639515 2.875,-1.422335 0.67879,-0.392075 3.9174,-1.914967 5.30832,-2.496129 0.21318,-0.08907 0.49592,-0.120259 0.63242,-0.06976 0.14135,0.05229 0.62089,-0.01128 1.12182,-0.148713 1.55918,-0.42776 3.61809,-0.637106 4.34369,-0.441657 0.4634,0.12482 0.43637,0.337829 -0.0429,0.337829 -1.65472,0 -6.78223,1.633495 -9.11338,2.90329 -1.98998,1.083957 -4.81871,3.11148 -6.91219,4.95438 -0.63267,0.556942 -1.45513,1.252744 -1.82769,1.546225 -0.37256,0.293483 -1.11603,1.06798 -1.65215,1.721105 -1.62356,1.977897 -1.68579,2.043914 -1.83803,1.949824 -0.17768,-0.109811 -0.19178,-1.350646 -0.0221,-1.94237 0.15791,-0.550589 0.0762,-0.620595 -0.30568,-0.261854 -0.50351,0.473023 -0.65275,1.437714 -0.40152,2.595418 0.34427,1.586441 0.62871,1.873962 2.44873,2.475291 0.71062,0.234789 3.05137,0.443164 4.01061,0.357029 0.30937,-0.02778 0.92812,-0.169798 1.375,-0.315593 z"
           id="path5957"
           inkscape:connector-curvature="0"
           transform="translate(-77.204171,-11.965299)" />
      </g>
    </a>
  </g>
</svg>
