<?xml version="1.0" encoding="UTF-8" standalone="no"?>
<!-- Created with Inkscape (http://www.inkscape.org/) -->

<svg
   xmlns:dc="http://purl.org/dc/elements/1.1/"
   xmlns:cc="http://creativecommons.org/ns#"
   xmlns:rdf="http://www.w3.org/1999/02/22-rdf-syntax-ns#"
   xmlns:svg="http://www.w3.org/2000/svg"
   xmlns="http://www.w3.org/2000/svg"
   xmlns:sodipodi="http://sodipodi.sourceforge.net/DTD/sodipodi-0.dtd"
   xmlns:inkscape="http://www.inkscape.org/namespaces/inkscape"
   width="62.865574mm"
   height="33.55547mm"
   viewBox="0 0 222.75203 118.89733"
   id="svg4908"
   version="1.1"
   inkscape:version="0.91 r13725"
   sodipodi:docname="rings.svg">
  <defs
     id="defs4910" />
  <sodipodi:namedview
     id="base"
     pagecolor="#ffffff"
     bordercolor="#666666"
     borderopacity="1.0"
     inkscape:pageopacity="0.0"
     inkscape:pageshadow="2"
     inkscape:zoom="4"
     inkscape:cx="38.53938"
     inkscape:cy="25.833445"
     inkscape:document-units="px"
     inkscape:current-layer="layer1"
     showgrid="false"
     inkscape:window-width="1920"
     inkscape:window-height="1017"
     inkscape:window-x="-8"
     inkscape:window-y="-8"
     inkscape:window-maximized="1"
     fit-margin-top="0"
     fit-margin-left="0"
     fit-margin-right="0"
     fit-margin-bottom="0" />
  <metadata
     id="metadata4913">
    <rdf:RDF>
      <cc:Work
         rdf:about="">
        <dc:format>image/svg+xml</dc:format>
        <dc:type
           rdf:resource="http://purl.org/dc/dcmitype/StillImage" />
        <dc:title></dc:title>
      </cc:Work>
    </rdf:RDF>
  </metadata>
  <g
     inkscape:label="Layer 1"
     inkscape:groupmode="layer"
     id="layer1"
     transform="translate(-24.302548,-24.770722)">
    <g
       id="g5054"
       transform="translate(-15.75,-31)">
      <g
         style="fill:#535d6c"
         transform="matrix(1.25,0,0,-1.25,238.09121,147.88895)"
         id="g3980">
        <path
           inkscape:connector-curvature="0"
           id="path3982"
           style="fill:#535d6c;fill-opacity:1;fill-rule:nonzero;stroke:none"
           d="m 0,0 c -1.096,-0.548 -2.227,-1.006 -3.363,-1.45 -0.323,-0.074 -0.648,-0.144 -0.962,-0.201 -3.596,-0.662 -7.435,-0.237 -11.031,0.19 -4.158,0.493 -8.272,0.895 -12.436,1.313 -10.474,1.054 -20.83,4.322 -30.845,7.427 -2.336,0.725 -5.743,1.509 -7.435,3.376 -1.112,1.226 -2.532,2.228 -3.832,3.245 -1.182,0.925 -4.126,3.44 -4.716,5.748 0.129,0.07 0.24,0.179 0.332,0.311 0.006,-0.014 0.011,-0.026 0.017,-0.042 0.04,0.067 0.09,0.125 0.133,0.188 0.136,0.09 0.215,0.203 0.263,0.323 1.699,1.802 5.707,1.774 7.838,1.992 3.403,0.348 6.872,0.564 10.286,0.754 0.138,0.007 0.254,0.06 0.355,0.131 5.091,-0.065 10.182,-0.533 15.205,-1.295 5.656,-0.859 11.4,-1.856 16.794,-3.811 C -15.186,15.224 -5.298,11.74 0.932,5.37 1.117,5.181 1.275,4.997 1.424,4.816 1.402,3.582 1.269,2.332 1.179,1.112 0.805,0.722 0.413,0.348 0,0 M 6.601,9.554 C 6.538,9.463 6.472,9.375 6.411,9.282 6.314,9.491 6.216,9.704 6.106,9.901 4.8,13.04 2.573,16.01 0.701,17.882 0.3,18.283 -0.308,17.703 0.065,17.277 1.06,16.141 1.907,14.99 2.618,13.77 3.537,12.749 4.304,11.602 4.795,10.268 5.045,9.584 4.12,9.213 3.659,9.617 c -2.312,2.026 -4.191,4.372 -6.783,6.091 -0.251,0.167 -0.395,0.393 -0.457,0.631 -1.404,0.876 -2.92,1.6 -4.387,2.266 -1.769,0.803 -3.413,1.797 -5.216,2.538 -1.173,0.482 -2.112,1.296 -3.378,1.242 -0.266,-0.011 -0.451,-0.339 -0.239,-0.546 2,-1.965 4.542,-2.821 6.798,-4.507 1.411,-1.056 3.399,-1.68 4.938,-2.576 1.044,-0.606 2.014,-1.301 3.018,-1.949 -0.309,-0.247 -0.462,-0.709 -0.121,-1.083 0.135,-0.147 0.267,-0.284 0.397,-0.422 -6.986,4.563 -15.231,7.665 -23.108,10.236 -6.145,2.006 -13.081,2.691 -19.494,3.337 -4.532,0.456 -9.023,0.515 -13.474,0.148 -1.528,0.266 -3.043,0.457 -4.658,0.504 -2.57,0.075 -5.008,-0.587 -7.546,-0.809 -1.079,-0.095 -2.346,-0.368 -3.428,-0.892 -0.11,0.077 -0.25,0.127 -0.437,0.114 -0.366,-0.026 -0.685,-0.096 -0.97,-0.201 0.034,0.1 0.079,0.203 0.125,0.306 -0.113,-0.087 -0.229,-0.172 -0.351,-0.249 -0.238,-0.153 -0.558,0.039 -0.56,0.313 -0.014,2.033 1.683,3.895 3.437,5.233 -2.591,0.801 -4.779,-1.625 -5.905,-3.812 -0.271,-0.533 -0.46,-1.071 -0.579,-1.61 -0.68,-1.029 -0.855,-2.641 -0.67,-3.686 0.312,-1.77 1.349,-3.224 2.664,-4.389 0.471,-0.91 1.123,-1.753 1.852,-2.504 1.127,-1.161 2.521,-2.12 3.793,-3.112 1.513,-1.178 2.687,-2.647 4.366,-3.574 4.351,-2.402 9.383,-3.544 14.121,-4.905 9.675,-2.781 19.479,-5.295 29.576,-5.743 7.145,-0.318 14.012,-2.374 21.174,-0.624 0.734,0.181 1.53,0.438 2.316,0.773 2.427,2.083 4.557,4.346 6.281,7.039 0.128,2.11 0.093,4.217 -0.153,6.359" />
      </g>
      <g
         style="fill:#535d6c"
         transform="matrix(1.25,0,0,-1.25,236.54583,169.4612)"
         id="g3984">
        <path
           inkscape:connector-curvature="0"
           id="path3986"
           style="fill:#535d6c;fill-opacity:1;fill-rule:nonzero;stroke:none"
           d="m 0,0 c -6.51,-1.989 -25.77,-0.885 -29.047,-0.085 -3.535,0.863 -7.179,1.129 -10.694,2.06 -6.951,1.841 -14.042,3.777 -20.681,6.553 -3.297,1.38 -12.344,6.386 -13.887,7.161 -2.371,1.193 -4.618,2.465 -6.663,4.194 -3.853,3.257 -8.498,10.915 -7.132,18.732 1.365,7.818 7.718,11.326 12.406,12.817 4.685,1.49 12.445,2.403 15.745,2.662 4.358,0.343 21.14,-0.651 28.156,-2 7.016,-1.349 20.624,-4.841 29.947,-9.464 3.634,-1.803 7.15,-4.254 10.227,-6.915 3.266,-2.825 5.306,-6.329 7.216,-10.187 0.049,-0.098 0.112,-0.178 0.179,-0.25 0.909,-3.491 0.309,-7.231 -0.306,-10.764 -0.062,-0.352 -0.02,-0.692 0.09,-0.994 C 12.223,6.892 7.004,2.14 0,0 m 18.99,13.544 c 0.104,0.247 0.208,0.505 0.313,0.765 0.839,1.331 1.276,2.899 1.446,4.513 0.095,0.392 0.183,0.785 0.258,1.181 -0.052,0.188 -0.115,0.375 -0.17,0.563 0,0.897 -0.066,1.785 -0.177,2.632 -0.274,2.114 -1.146,4.342 -2.268,6.114 -0.588,0.933 -1.289,2.175 -2.08,2.89 -0.213,0.194 -0.598,0.442 -0.932,0.722 -0.199,0.314 -0.405,0.623 -0.626,0.927 -0.033,0.486 -0.367,0.841 -0.767,1.001 -2.914,3.573 -7.044,6.425 -10.554,8.688 -9.364,6.04 -20.52,7.893 -31.046,10.938 -9.301,2.691 -21.248,3.552 -27.947,3.408 -6.701,-0.142 -16.862,-1.475 -22.767,-2.951 -5.906,-1.474 -11.836,-8.54 -12.389,-9.625 -2.324,-3.661 -2.589,-6.762 -2.431,-11.144 -0.094,-1.774 -0.022,-3.534 0.225,-5.283 0.96,-2.34 2.133,-4.59 3.459,-6.736 2.849,-2.944 6.035,-5.543 8.951,-7.801 1.45,-1.122 2.94,-2.189 4.446,-3.23 1.706,-0.725 3.432,-1.408 5.135,-2.1 8.77,-3.569 17.622,-6.555 26.71,-9.202 4.364,-1.271 8.706,-1.837 13.126,-2.798 4.058,-0.881 19.842,-1.235 23.918,-1.175 3.698,0.056 7.604,0.702 11.047,2.168 6.833,2.908 12.196,8.613 15.12,15.535" />
      </g>
      <g
         style="fill:#535d6c"
         transform="matrix(1.25,0,0,-1.25,177.79945,109.38683)"
         id="g3988">
        <path
           inkscape:connector-curvature="0"
           id="path3990"
           style="fill:#535d6c;fill-opacity:1;fill-rule:nonzero;stroke:none"
           d="m 0,0 c 1.343,0.166 3.065,-0.685 4.377,-0.9 1.904,-0.313 3.819,-0.529 5.719,-0.882 3.904,-0.728 7.765,-1.692 11.599,-2.722 3.842,-1.031 7.695,-2.068 11.517,-3.165 3.443,-0.987 6.561,-3.569 10.05,-4.047 0.466,-0.065 0.641,0.562 0.377,0.858 -2.152,2.4 -5.801,3.676 -8.808,4.637 -4.146,1.325 -8.436,2.279 -12.639,3.426 -3.902,1.063 -7.885,1.823 -11.89,2.392 C 8.347,-0.126 6.493,0.058 4.517,0.052 2.905,0.045 1.504,0.647 -0.019,0.064 -0.057,0.049 -0.042,-0.006 0,0" />
      </g>
      <g
         style="fill:#535d6c"
         transform="matrix(1.25,0,0,-1.25,152.88008,83.933955)"
         id="g4004">
        <path
           inkscape:connector-curvature="0"
           id="path4006"
           style="fill:#535d6c;fill-opacity:1;fill-rule:nonzero;stroke:none"
           d="m 0,0 c -0.542,-1.098 -1.167,-2.147 -1.804,-3.188 -0.213,-0.254 -0.428,-0.505 -0.644,-0.741 -2.466,-2.699 -5.781,-4.68 -8.906,-6.514 -3.61,-2.119 -7.131,-4.285 -10.702,-6.468 -8.982,-5.488 -19.209,-9.142 -29.065,-12.718 -2.299,-0.834 -5.487,-2.268 -7.964,-1.804 -1.627,0.306 -3.363,0.246 -5.015,0.271 -1.5,0.023 -5.366,0.247 -7.23,1.731 0.06,0.133 0.083,0.287 0.076,0.448 0.014,-0.007 0.025,-0.015 0.039,-0.023 -0.009,0.077 -0.003,0.154 -0.007,0.231 0.054,0.153 0.049,0.291 0.014,0.415 0.266,2.463 3.476,4.862 5.042,6.323 2.501,2.334 5.135,4.602 7.741,6.816 0.105,0.089 0.165,0.202 0.203,0.319 4.097,3.025 8.436,5.728 12.898,8.155 5.026,2.734 10.206,5.41 15.684,7.111 8.34,2.591 18.325,5.79 27.138,4.478 C -2.24,4.803 -2.003,4.753 -1.775,4.699 -1.047,3.702 -0.398,2.625 0.268,1.598 0.205,1.061 0.119,0.527 0,0 m -0.514,11.601 c 0.006,-0.11 0.006,-0.22 0.014,-0.33 -0.204,0.107 -0.41,0.217 -0.617,0.308 -2.938,1.712 -6.506,2.733 -9.129,3.094 -0.562,0.077 -0.696,-0.753 -0.142,-0.867 1.48,-0.304 2.85,-0.709 4.154,-1.252 1.349,-0.258 2.653,-0.709 3.85,-1.475 0.613,-0.393 0.1,-1.248 -0.512,-1.205 -3.066,0.217 -5.981,0.951 -9.085,0.755 -0.3,-0.019 -0.551,0.075 -0.745,0.226 -1.648,-0.15 -3.294,-0.488 -4.865,-0.844 -1.894,-0.43 -3.805,-0.631 -5.689,-1.13 -1.227,-0.325 -2.466,-0.243 -3.443,-1.052 -0.205,-0.169 -0.154,-0.541 0.14,-0.579 2.781,-0.356 5.323,0.497 8.141,0.517 1.761,0.011 3.722,0.714 5.491,0.931 1.197,0.148 2.39,0.18 3.582,0.27 C -9.467,8.585 -9.309,8.124 -8.812,8.032 -8.615,7.996 -8.428,7.967 -8.239,7.936 -16.563,7.35 -25.008,4.84 -32.838,2.129 -38.946,0.015 -44.887,-3.63 -50.388,-6.99 c -3.886,-2.376 -7.5,-5.042 -10.825,-8.024 -1.378,-0.711 -2.7,-1.474 -4.016,-2.413 -2.093,-1.493 -3.635,-3.493 -5.523,-5.204 -0.804,-0.727 -1.648,-1.711 -2.193,-2.782 -0.134,-0.005 -0.277,-0.05 -0.417,-0.173 -0.277,-0.242 -0.488,-0.491 -0.652,-0.746 -0.033,0.101 -0.059,0.21 -0.085,0.319 -0.038,-0.138 -0.079,-0.275 -0.13,-0.41 -0.096,-0.265 -0.467,-0.306 -0.634,-0.089 -1.241,1.611 -1.013,4.12 -0.424,6.245 -2.549,-0.926 -2.826,-4.181 -2.401,-6.604 0.105,-0.589 0.28,-1.131 0.511,-1.633 0.079,-1.231 0.914,-2.621 1.693,-3.342 1.318,-1.222 3.023,-1.754 4.775,-1.887 0.925,-0.441 1.953,-0.719 2.988,-0.877 1.6,-0.244 3.289,-0.166 4.903,-0.187 1.918,-0.025 3.741,-0.486 5.638,-0.21 4.918,0.715 9.618,2.845 14.216,4.624 9.39,3.63 18.72,7.55 27.036,13.294 5.886,4.064 12.6,6.575 17.249,12.297 0.475,0.587 0.954,1.272 1.378,2.015 0.676,3.127 1.006,6.216 0.752,9.404 -1.173,1.759 -2.474,3.416 -3.965,4.974" />
      </g>
      <g
         style="fill:#535d6c"
         transform="matrix(1.25,0,0,-1.25,164.68295,102.05708)"
         id="g4008">
        <path
           inkscape:connector-curvature="0"
           id="path4010"
           style="fill:#535d6c;fill-opacity:1;fill-rule:nonzero;stroke:none"
           d="m 0,0 c -3.985,-5.518 -19.998,-16.275 -23.094,-17.618 -3.338,-1.448 -6.401,-3.438 -9.765,-4.82 -6.652,-2.733 -13.471,-5.476 -20.439,-7.274 -3.46,-0.893 -13.693,-2.371 -15.391,-2.685 -2.611,-0.482 -5.169,-0.827 -7.844,-0.684 -5.038,0.266 -13.366,3.562 -17.001,10.616 -3.637,7.053 -0.694,13.688 2.141,17.708 2.832,4.019 8.464,9.435 10.937,11.635 3.266,2.907 17.238,12.255 23.643,15.419 6.406,3.164 19.359,8.605 29.581,10.554 3.985,0.759 8.267,0.93 12.327,0.67 4.31,-0.278 8.051,-1.838 11.905,-3.758 0.099,-0.049 0.197,-0.075 0.294,-0.09 C 0.127,27.44 1.909,24.097 3.554,20.91 3.718,20.592 3.956,20.347 4.226,20.172 5.575,12.877 4.288,5.937 0,0 M 6.948,22.267 C 6.882,22.526 6.809,22.794 6.735,23.065 6.6,24.633 6,26.147 5.16,27.535 c -0.161,0.37 -0.328,0.736 -0.508,1.097 -0.155,0.118 -0.318,0.229 -0.475,0.346 -0.542,0.714 -1.131,1.382 -1.732,1.99 -1.496,1.519 -3.537,2.768 -5.501,3.503 -1.033,0.386 -2.34,0.953 -3.403,1.045 -0.287,0.025 -0.744,-0.01 -1.18,0.011 -0.348,0.13 -0.699,0.252 -1.058,0.361 -0.321,0.367 -0.801,0.448 -1.216,0.334 -4.48,1.087 -9.495,0.864 -13.66,0.546 C -34.684,35.923 -44.692,30.658 -54.92,26.725 -63.956,23.249 -73.996,16.716 -79.247,12.554 -84.5,8.392 -91.791,1.19 -95.605,-3.554 c -3.816,-4.743 -4.271,-13.956 -4.055,-15.155 0.359,-4.322 2.022,-6.952 4.796,-10.348 0.996,-1.47 2.117,-2.83 3.371,-4.074 2.179,-1.285 4.472,-2.369 6.826,-3.277 4.049,-0.625 8.158,-0.771 11.846,-0.808 1.834,-0.018 3.665,0.032 5.494,0.112 1.798,0.454 3.586,0.953 5.361,1.43 9.145,2.455 18.002,5.425 26.843,8.807 4.245,1.624 8.047,3.796 12.149,5.702 3.766,1.749 16.557,11.004 19.769,13.516 2.913,2.278 5.634,5.153 7.492,8.401 3.688,6.446 4.514,14.233 2.661,21.515" />
      </g>
      <g
         style="fill:#535d6c"
         transform="matrix(1.25,0,0,-1.25,81.57508,89.684205)"
         id="g4012">
        <path
           inkscape:connector-curvature="0"
           id="path4014"
           style="fill:#535d6c;fill-opacity:1;fill-rule:nonzero;stroke:none"
           d="m 0,0 c 0.97,0.943 2.857,1.306 4.031,1.927 1.707,0.901 3.363,1.887 5.09,2.753 3.551,1.779 7.21,3.344 10.888,4.84 3.683,1.5 7.38,3.001 11.089,4.436 3.34,1.294 7.384,1.121 10.453,2.848 0.41,0.23 0.171,0.836 -0.218,0.911 -3.165,0.613 -6.844,-0.575 -9.82,-1.626 C 27.409,14.64 23.413,12.807 19.372,11.182 15.62,9.671 11.987,7.87 8.452,5.903 6.727,4.942 5.139,3.969 3.567,2.77 2.287,1.791 0.807,1.424 -0.054,0.04 -0.075,0.004 -0.03,-0.03 0,0" />
      </g>
    </g>
  </g>
</svg>
