<?xml version="1.0" encoding="UTF-8" standalone="no"?>
<!-- Created with Inkscape (http://www.inkscape.org/) -->
<svg id="svg4647" xmlns:rdf="http://www.w3.org/1999/02/22-rdf-syntax-ns#" xmlns="http://www.w3.org/2000/svg" height="18.878mm" width="69.335mm" version="1.1" xmlns:cc="http://creativecommons.org/ns#" xmlns:dc="http://purl.org/dc/elements/1.1/" viewBox="0 0 245.67419 66.890484">
 <metadata id="metadata4652">
  <rdf:RDF>
   <cc:Work rdf:about="">
    <dc:format>image/svg+xml</dc:format>
    <dc:type rdf:resource="http://purl.org/dc/dcmitype/StillImage"/>
    <dc:title/>
   </cc:Work>
  </rdf:RDF>
 </metadata>
 <g id="layer1" transform="translate(-77.837 -33.677)">
  <text id="text4577" style="word-spacing:0px;letter-spacing:0px" xml:space="preserve" transform="scale(1.0076 .99249)" line-height="125%" font-size="42.407px" y="127.31915" x="113.37634" font-family="&apos;Matilde Sketch&apos;" fill="#000000"><tspan id="tspan4579" y="127.31915" x="113.37634" font-family="&apos;Matilde Sketch&apos;" fill="#666666"/></text>
  <text id="text3392" style="word-spacing:0px;letter-spacing:0px" line-height="125%" font-size="40px" y="131.86218" x="117" font-family="sans-serif" xml:space="preserve" fill="#000000"><tspan id="tspan3394" y="131.86218" x="117"/></text>
  <g id="g3629" transform="translate(-315.34 -67.453)">
   <g id="g3856" transform="matrix(.93216 0 0 -.75158 398.71 151.32)">
    <path id="path3858" d="m0 0s-0.188 0.088-0.511 0.329c-0.288 0.236-0.815 0.702-0.833 1.542-0.028 0.82 0.407 1.72 1.012 2.572 0.608 0.863 1.391 1.742 2.277 2.644 0.45 0.466 0.9 0.897 1.351 1.396 0.393 0.457 0.799 0.996 1.131 1.568 0.678 1.149 1.111 2.509 1.238 3.929 0.116 1.419-0.116 2.914-0.763 4.215-0.623 1.315-1.659 2.399-2.991 3.039-1.167 0.549-2.68 0.505-3.849-0.185-1.177-0.673-2.015-1.857-2.182-3.137-0.187-1.332 0.24-2.51 1.209-3.186 0.952-0.671 2.258-0.815 3.24-0.467 1.008 0.34 1.58 1.228 1.636 2.151 0.112 0.933-0.315 1.666-0.955 1.881-0.627 0.231-1.19-0.053-1.411-0.352-0.23-0.304-0.252-0.532-0.267-0.524 0.018-0.005-0.006 0.217 0.18 0.583 0.174 0.347 0.76 0.845 1.599 0.666 0.404-0.077 0.832-0.327 1.134-0.741 0.319-0.426 0.445-0.975 0.471-1.523 0.029-0.558-0.068-1.195-0.388-1.795-0.326-0.592-0.881-1.102-1.542-1.412-1.319-0.63-3.036-0.624-4.519 0.254-0.739 0.431-1.391 1.128-1.77 1.974-0.101 0.195-0.177 0.473-0.244 0.687l-0.065 0.28-0.017 0.07-0.023 0.132-0.021 0.166c-0.062 0.442-0.07 0.9-0.024 1.359 0.149 1.853 1.298 3.652 2.985 4.615 1.665 0.988 3.87 1.205 5.729 0.27 1.679-0.832 3.07-2.316 3.822-3.99 0.765-1.683 0.952-3.521 0.747-5.212-0.203-1.702-0.867-3.252-1.725-4.527-0.437-0.642-0.903-1.205-1.451-1.718-0.501-0.462-1.037-0.888-1.498-1.285-0.943-0.811-1.801-1.554-2.46-2.288-0.652-0.73-1.141-1.456-1.209-2.122-0.087-0.67 0.268-1.172 0.519-1.452 0.262-0.281 0.438-0.406 0.438-0.406" fill="#837c74"/>
   </g>
   <g id="g3860" transform="matrix(.93216 0 0 -.75158 398.71 116.5)">
    <path id="path3862" d="m0 0s-0.176-0.125-0.438-0.406c-0.251-0.28-0.606-0.782-0.519-1.452 0.068-0.666 0.557-1.392 1.209-2.122 0.659-0.734 1.517-1.477 2.46-2.288 0.461-0.397 0.997-0.823 1.498-1.285 0.548-0.513 1.014-1.076 1.451-1.718 0.858-1.275 1.522-2.825 1.725-4.526 0.205-1.692 0.018-3.53-0.747-5.213-0.753-1.674-2.143-3.158-3.822-3.989-1.858-0.936-4.064-0.719-5.728 0.269-1.688 0.963-2.836 2.761-2.986 4.614-0.046 0.459-0.038 0.918 0.024 1.359l0.021 0.166 0.023 0.133 0.017 0.07 0.065 0.279c0.067 0.215 0.143 0.493 0.243 0.687 0.38 0.846 1.032 1.544 1.77 1.975 1.484 0.878 3.201 0.884 4.519 0.254 0.661-0.309 1.217-0.819 1.542-1.411 0.32-0.6 0.418-1.237 0.389-1.795-0.026-0.549-0.151-1.098-0.471-1.523-0.301-0.415-0.73-0.665-1.133-0.741-0.839-0.18-1.426 0.318-1.599 0.665-0.187 0.366-0.163 0.588-0.181 0.583 0.015 0.008 0.037-0.22 0.268-0.524 0.22-0.299 0.783-0.583 1.41-0.352 0.64 0.216 1.067 0.949 0.955 1.881-0.056 0.924-0.629 1.811-1.637 2.151-0.982 0.348-2.288 0.203-3.239-0.467-0.969-0.676-1.396-1.855-1.209-3.187 0.167-1.28 1.006-2.463 2.183-3.136 1.168-0.69 2.682-0.734 3.848-0.185 1.332 0.64 2.368 1.724 2.991 3.039 0.647 1.301 0.879 2.796 0.763 4.215-0.127 1.421-0.56 2.78-1.238 3.929-0.332 0.572-0.738 1.111-1.131 1.568-0.451 0.499-0.901 0.93-1.351 1.396-0.886 0.902-1.669 1.781-2.278 2.644-0.604 0.852-1.039 1.752-1.011 2.572 0.018 0.84 0.545 1.306 0.833 1.542 0.323 0.241 0.511 0.329 0.511 0.329" fill="#837c74"/>
   </g>
   <g id="g3864" transform="matrix(.93216 0 0 -.75158 633.33 151.32)">
    <path id="path3866" d="m0 0s0.176 0.125 0.438 0.406c0.251 0.28 0.606 0.782 0.519 1.452-0.068 0.666-0.557 1.392-1.209 2.122-0.659 0.734-1.517 1.477-2.46 2.288-0.461 0.397-0.997 0.823-1.498 1.285-0.548 0.513-1.014 1.076-1.451 1.718-0.858 1.275-1.522 2.825-1.725 4.527-0.205 1.691-0.018 3.529 0.747 5.212 0.752 1.674 2.143 3.158 3.822 3.99 1.859 0.935 4.064 0.718 5.729-0.27 1.687-0.963 2.836-2.762 2.985-4.615 0.046-0.459 0.037-0.917-0.024-1.359l-0.021-0.166-0.023-0.132-0.017-0.07-0.065-0.28c-0.067-0.214-0.143-0.492-0.243-0.687-0.38-0.846-1.032-1.543-1.771-1.974-1.483-0.878-3.2-0.884-4.519-0.254-0.661 0.31-1.216 0.82-1.542 1.412-0.32 0.6-0.417 1.237-0.388 1.795 0.027 0.548 0.152 1.097 0.471 1.523 0.302 0.414 0.73 0.664 1.134 0.741 0.839 0.179 1.425-0.319 1.599-0.666 0.186-0.366 0.162-0.588 0.18-0.583-0.015-0.008-0.037 0.22-0.267 0.524-0.221 0.299-0.784 0.583-1.411 0.352-0.64-0.215-1.067-0.948-0.955-1.881 0.056-0.923 0.629-1.811 1.636-2.151 0.982-0.348 2.288-0.204 3.24 0.467 0.969 0.676 1.396 1.854 1.209 3.186-0.167 1.28-1.005 2.464-2.182 3.137-1.169 0.69-2.682 0.734-3.849 0.185-1.332-0.64-2.368-1.724-2.991-3.039-0.647-1.301-0.879-2.796-0.763-4.215 0.127-1.42 0.56-2.78 1.238-3.929 0.332-0.572 0.738-1.111 1.131-1.568 0.45-0.499 0.901-0.93 1.351-1.396 0.886-0.902 1.669-1.781 2.277-2.644 0.605-0.852 1.04-1.752 1.012-2.572-0.018-0.84-0.545-1.306-0.833-1.542-0.324-0.241-0.511-0.329-0.511-0.329" fill="#837c74"/>
   </g>
   <g id="g3868" transform="matrix(.93216 0 0 -.75158 633.33 116.5)">
    <path id="path3870" d="m0 0s0.187-0.088 0.511-0.329c0.288-0.236 0.815-0.702 0.833-1.542 0.028-0.82-0.407-1.72-1.012-2.572-0.608-0.863-1.391-1.742-2.277-2.644-0.45-0.466-0.9-0.897-1.351-1.396-0.393-0.457-0.799-0.996-1.131-1.568-0.678-1.149-1.111-2.508-1.238-3.929-0.116-1.419 0.116-2.914 0.763-4.215 0.623-1.315 1.659-2.399 2.991-3.039 1.166-0.549 2.68-0.505 3.848 0.185 1.177 0.673 2.016 1.856 2.183 3.136 0.187 1.332-0.24 2.511-1.209 3.187-0.952 0.67-2.257 0.815-3.239 0.467-1.008-0.34-1.581-1.227-1.637-2.151-0.112-0.932 0.315-1.665 0.955-1.881 0.627-0.231 1.19 0.053 1.41 0.352 0.231 0.304 0.253 0.532 0.268 0.524-0.018 0.005 0.006-0.217-0.18-0.583-0.174-0.347-0.761-0.845-1.6-0.665-0.403 0.076-0.832 0.326-1.133 0.741-0.32 0.425-0.445 0.974-0.471 1.523-0.029 0.558 0.069 1.195 0.389 1.795 0.325 0.592 0.88 1.102 1.542 1.411 1.318 0.63 3.035 0.624 4.519-0.254 0.738-0.431 1.39-1.129 1.77-1.975 0.1-0.194 0.176-0.472 0.243-0.687l0.065-0.279 0.017-0.07 0.023-0.133 0.021-0.166c0.061-0.441 0.07-0.9 0.024-1.359-0.15-1.853-1.298-3.651-2.986-4.614-1.664-0.988-3.87-1.205-5.728-0.269-1.679 0.831-3.069 2.315-3.822 3.989-0.765 1.683-0.952 3.521-0.747 5.213 0.203 1.701 0.867 3.251 1.725 4.526 0.437 0.642 0.903 1.205 1.451 1.718 0.501 0.462 1.037 0.888 1.498 1.285 0.943 0.811 1.801 1.554 2.46 2.288 0.652 0.73 1.141 1.456 1.209 2.122 0.087 0.67-0.268 1.172-0.519 1.452-0.262 0.281-0.438 0.406-0.438 0.406" fill="#837c74"/>
   </g>
   <g id="g3872" transform="matrix(.93216 0 0 -.75158 399.44 168.02)">
    <path id="path3874" d="m0 0h-0.514c-0.552 0-1 0.448-1 1s0.448 1 1 1h0.514c0.553 0 1-0.448 1-1s-0.447-1-1-1m6.674 0h-0.513c-0.553 0-1 0.448-1 1s0.447 1 1 1h0.513c0.553 0 1-0.448 1-1s-0.447-1-1-1m6.675 0h-0.514c-0.553 0-1 0.448-1 1s0.447 1 1 1h0.514c0.552 0 1-0.448 1-1s-0.448-1-1-1m6.673 0h-0.512c-0.553 0-1 0.448-1 1s0.447 1 1 1h0.512c0.553 0 1-0.448 1-1s-0.447-1-1-1m6.675 0h-0.513c-0.553 0-1 0.448-1 1s0.447 1 1 1h0.513c0.553 0 1-0.448 1-1s-0.447-1-1-1m6.674 0h-0.513c-0.552 0-1 0.448-1 1s0.448 1 1 1h0.513c0.553 0 1-0.448 1-1s-0.447-1-1-1m6.675 0h-0.514c-0.553 0-1 0.448-1 1s0.447 1 1 1h0.514c0.553 0 1-0.448 1-1s-0.447-1-1-1m6.674 0h-0.513c-0.553 0-1 0.448-1 1s0.447 1 1 1h0.513c0.552 0 1-0.448 1-1s-0.448-1-1-1m6.675 0h-0.514c-0.553 0-1 0.448-1 1s0.447 1 1 1h0.514c0.552 0 1-0.448 1-1s-0.448-1-1-1m6.674 0h-0.513c-0.553 0-1 0.448-1 1s0.447 1 1 1h0.513c0.553 0 1-0.448 1-1s-0.447-1-1-1m6.674 0h-0.514c-0.552 0-1 0.448-1 1s0.448 1 1 1h0.514c0.553 0 1-0.448 1-1s-0.447-1-1-1m6.675 0h-0.514c-0.552 0-1 0.448-1 1s0.448 1 1 1h0.514c0.553 0 1-0.448 1-1s-0.447-1-1-1m6.674 0h-0.514c-0.553 0-1 0.448-1 1s0.447 1 1 1h0.514c0.553 0 1-0.448 1-1s-0.447-1-1-1m6.675 0h-0.514c-0.553 0-1 0.448-1 1s0.447 1 1 1h0.514c0.552 0 1-0.448 1-1s-0.448-1-1-1m6.673 0h-0.513c-0.553 0-1 0.448-1 1s0.447 1 1 1h0.513c0.553 0 1-0.448 1-1s-0.447-1-1-1m6.675 0h-0.513c-0.553 0-1 0.448-1 1s0.447 1 1 1h0.513c0.553 0 1-0.448 1-1s-0.447-1-1-1m6.674 0h-0.513c-0.552 0-1 0.448-1 1s0.448 1 1 1h0.513c0.553 0 1-0.448 1-1s-0.447-1-1-1m6.675 0h-0.514c-0.553 0-1 0.448-1 1s0.447 1 1 1h0.514c0.553 0 1-0.448 1-1s-0.447-1-1-1m6.674 0h-0.513c-0.553 0-1 0.448-1 1s0.447 1 1 1h0.513c0.552 0 1-0.448 1-1s-0.448-1-1-1m6.675 0h-0.514c-0.553 0-1 0.448-1 1s0.447 1 1 1h0.514c0.552 0 1-0.448 1-1s-0.448-1-1-1m6.673 0h-0.512c-0.553 0-1 0.448-1 1s0.447 1 1 1h0.512c0.553 0 1-0.448 1-1s-0.447-1-1-1m6.675 0h-0.514c-0.552 0-1 0.448-1 1s0.448 1 1 1h0.514c0.553 0 1-0.448 1-1s-0.447-1-1-1m6.674 0h-0.513c-0.552 0-1 0.448-1 1s0.448 1 1 1h0.513c0.553 0 1-0.448 1-1s-0.447-1-1-1m6.675 0h-0.514c-0.553 0-1 0.448-1 1s0.447 1 1 1h0.514c0.552 0 1-0.448 1-1s-0.448-1-1-1m6.675 0h-0.514c-0.553 0-1 0.448-1 1s0.447 1 1 1h0.514c0.552 0 1-0.448 1-1s-0.448-1-1-1m6.673 0h-0.513c-0.553 0-1 0.448-1 1s0.447 1 1 1h0.513c0.553 0 1-0.448 1-1s-0.447-1-1-1m6.675 0h-0.513c-0.553 0-1 0.448-1 1s0.447 1 1 1h0.513c0.553 0 1-0.448 1-1s-0.447-1-1-1m6.674 0h-0.514c-0.552 0-1 0.448-1 1s0.448 1 1 1h0.514c0.553 0 1-0.448 1-1s-0.447-1-1-1m6.675 0h-0.514c-0.553 0-1 0.448-1 1s0.447 1 1 1h0.514c0.553 0 1-0.448 1-1s-0.447-1-1-1m6.674 0h-0.514c-0.553 0-1 0.448-1 1s0.447 1 1 1h0.514c0.552 0 1-0.448 1-1s-0.448-1-1-1m6.674 0h-0.513c-0.553 0-1 0.448-1 1s0.447 1 1 1h0.513c0.553 0 1-0.448 1-1s-0.447-1-1-1m6.674 0h-0.512c-0.553 0-1 0.448-1 1s0.447 1 1 1h0.512c0.553 0 1-0.448 1-1s-0.447-1-1-1m6.675 0h-0.514c-0.552 0-1 0.448-1 1s0.448 1 1 1h0.514c0.553 0 1-0.448 1-1s-0.447-1-1-1m6.674 0h-0.513c-0.553 0-1 0.448-1 1s0.447 1 1 1h0.513c0.553 0 1-0.448 1-1s-0.447-1-1-1m6.675 0h-0.514c-0.553 0-1 0.448-1 1s0.447 1 1 1h0.514c0.552 0 1-0.448 1-1s-0.448-1-1-1m6.674 0h-0.513c-0.553 0-1 0.448-1 1s0.447 1 1 1h0.513c0.552 0 1-0.448 1-1s-0.448-1-1-1m6.674 0h-0.513c-0.553 0-1 0.448-1 1s0.447 1 1 1h0.513c0.553 0 1-0.448 1-1s-0.447-1-1-1m6.674 0h-0.513c-0.552 0-1 0.448-1 1s0.448 1 1 1h0.513c0.553 0 1-0.448 1-1s-0.447-1-1-1" fill="#837c74"/>
   </g>
   <g id="g3876" transform="matrix(.93216 0 0 -.75158 399.44 102.63)">
    <path id="path3878" d="m0 0h-0.514c-0.552 0-1 0.448-1 1s0.448 1 1 1h0.514c0.553 0 1-0.448 1-1s-0.447-1-1-1m6.674 0h-0.513c-0.553 0-1 0.448-1 1s0.447 1 1 1h0.513c0.553 0 1-0.448 1-1s-0.447-1-1-1m6.675 0h-0.514c-0.553 0-1 0.448-1 1s0.447 1 1 1h0.514c0.552 0 1-0.448 1-1s-0.448-1-1-1m6.673 0h-0.512c-0.553 0-1 0.448-1 1s0.447 1 1 1h0.512c0.553 0 1-0.448 1-1s-0.447-1-1-1m6.675 0h-0.513c-0.553 0-1 0.448-1 1s0.447 1 1 1h0.513c0.553 0 1-0.448 1-1s-0.447-1-1-1m6.674 0h-0.513c-0.552 0-1 0.448-1 1s0.448 1 1 1h0.513c0.553 0 1-0.448 1-1s-0.447-1-1-1m6.675 0h-0.514c-0.553 0-1 0.448-1 1s0.447 1 1 1h0.514c0.553 0 1-0.448 1-1s-0.447-1-1-1m6.674 0h-0.513c-0.553 0-1 0.448-1 1s0.447 1 1 1h0.513c0.552 0 1-0.448 1-1s-0.448-1-1-1m6.675 0h-0.514c-0.553 0-1 0.448-1 1s0.447 1 1 1h0.514c0.552 0 1-0.448 1-1s-0.448-1-1-1m6.674 0h-0.513c-0.553 0-1 0.448-1 1s0.447 1 1 1h0.513c0.553 0 1-0.448 1-1s-0.447-1-1-1m6.674 0h-0.514c-0.552 0-1 0.448-1 1s0.448 1 1 1h0.514c0.553 0 1-0.448 1-1s-0.447-1-1-1m6.675 0h-0.514c-0.552 0-1 0.448-1 1s0.448 1 1 1h0.514c0.553 0 1-0.448 1-1s-0.447-1-1-1m6.674 0h-0.514c-0.553 0-1 0.448-1 1s0.447 1 1 1h0.514c0.553 0 1-0.448 1-1s-0.447-1-1-1m6.675 0h-0.514c-0.553 0-1 0.448-1 1s0.447 1 1 1h0.514c0.552 0 1-0.448 1-1s-0.448-1-1-1m6.673 0h-0.513c-0.553 0-1 0.448-1 1s0.447 1 1 1h0.513c0.553 0 1-0.448 1-1s-0.447-1-1-1m6.675 0h-0.513c-0.553 0-1 0.448-1 1s0.447 1 1 1h0.513c0.553 0 1-0.448 1-1s-0.447-1-1-1m6.674 0h-0.513c-0.552 0-1 0.448-1 1s0.448 1 1 1h0.513c0.553 0 1-0.448 1-1s-0.447-1-1-1m6.675 0h-0.514c-0.553 0-1 0.448-1 1s0.447 1 1 1h0.514c0.553 0 1-0.448 1-1s-0.447-1-1-1m6.674 0h-0.513c-0.553 0-1 0.448-1 1s0.447 1 1 1h0.513c0.552 0 1-0.448 1-1s-0.448-1-1-1m6.675 0h-0.514c-0.553 0-1 0.448-1 1s0.447 1 1 1h0.514c0.552 0 1-0.448 1-1s-0.448-1-1-1m6.673 0h-0.512c-0.553 0-1 0.448-1 1s0.447 1 1 1h0.512c0.553 0 1-0.448 1-1s-0.447-1-1-1m6.675 0h-0.514c-0.552 0-1 0.448-1 1s0.448 1 1 1h0.514c0.553 0 1-0.448 1-1s-0.447-1-1-1m6.674 0h-0.513c-0.552 0-1 0.448-1 1s0.448 1 1 1h0.513c0.553 0 1-0.448 1-1s-0.447-1-1-1m6.675 0h-0.514c-0.553 0-1 0.448-1 1s0.447 1 1 1h0.514c0.552 0 1-0.448 1-1s-0.448-1-1-1m6.675 0h-0.514c-0.553 0-1 0.448-1 1s0.447 1 1 1h0.514c0.552 0 1-0.448 1-1s-0.448-1-1-1m6.673 0h-0.513c-0.553 0-1 0.448-1 1s0.447 1 1 1h0.513c0.553 0 1-0.448 1-1s-0.447-1-1-1m6.675 0h-0.513c-0.553 0-1 0.448-1 1s0.447 1 1 1h0.513c0.553 0 1-0.448 1-1s-0.447-1-1-1m6.674 0h-0.514c-0.552 0-1 0.448-1 1s0.448 1 1 1h0.514c0.553 0 1-0.448 1-1s-0.447-1-1-1m6.675 0h-0.514c-0.553 0-1 0.448-1 1s0.447 1 1 1h0.514c0.553 0 1-0.448 1-1s-0.447-1-1-1m6.674 0h-0.514c-0.553 0-1 0.448-1 1s0.447 1 1 1h0.514c0.552 0 1-0.448 1-1s-0.448-1-1-1m6.674 0h-0.513c-0.553 0-1 0.448-1 1s0.447 1 1 1h0.513c0.553 0 1-0.448 1-1s-0.447-1-1-1m6.674 0h-0.512c-0.553 0-1 0.448-1 1s0.447 1 1 1h0.512c0.553 0 1-0.448 1-1s-0.447-1-1-1m6.675 0h-0.514c-0.552 0-1 0.448-1 1s0.448 1 1 1h0.514c0.553 0 1-0.448 1-1s-0.447-1-1-1m6.674 0h-0.513c-0.553 0-1 0.448-1 1s0.447 1 1 1h0.513c0.553 0 1-0.448 1-1s-0.447-1-1-1m6.675 0h-0.514c-0.553 0-1 0.448-1 1s0.447 1 1 1h0.514c0.552 0 1-0.448 1-1s-0.448-1-1-1m6.674 0h-0.513c-0.553 0-1 0.448-1 1s0.447 1 1 1h0.513c0.552 0 1-0.448 1-1s-0.448-1-1-1m6.674 0h-0.513c-0.553 0-1 0.448-1 1s0.447 1 1 1h0.513c0.553 0 1-0.448 1-1s-0.447-1-1-1m6.674 0h-0.513c-0.552 0-1 0.448-1 1s0.448 1 1 1h0.513c0.553 0 1-0.448 1-1s-0.447-1-1-1" fill="#837c74"/>
   </g>
   <g id="g3880" transform="matrix(.93216 0 0 -.75158 399.89 164.95)">
    <path id="path3882" d="m0 0l38.854 0.28c11.657 0.045 25.255 0.097 39.826 0.153 14.57 0.021 30.11 0.044 45.65 0.067 15.55-0.023 31.09-0.045 45.66-0.066 14.57-0.056 28.17-0.108 39.82-0.153 23.31-0.168 38.86-0.281 38.86-0.281s-15.542-0.113-38.855-0.281c-11.66-0.045-25.26-0.097-39.83-0.153-14.57-0.021-30.11-0.043-45.66-0.066-15.54 0.023-31.08 0.046-45.65 0.067-14.571 0.056-28.169 0.108-39.826 0.153l-38.854 0.28" fill="#837c74"/>
   </g>
   <g id="g3884" transform="matrix(.93216 0 0 -.75158 399.89 104.45)">
    <path id="path3886" d="m0 0l38.854 0.28c11.657 0.045 25.255 0.097 39.826 0.153 14.57 0.021 30.11 0.044 45.65 0.067 15.55-0.023 31.09-0.045 45.66-0.066 14.57-0.056 28.17-0.108 39.82-0.153 23.31-0.168 38.86-0.281 38.86-0.281s-15.542-0.113-38.855-0.281c-11.66-0.045-25.26-0.097-39.83-0.153-14.57-0.021-30.11-0.043-45.66-0.066-15.54 0.023-31.08 0.046-45.65 0.067-14.571 0.056-28.169 0.108-39.826 0.153l-38.854 0.28" fill="#837c74"/>
   </g>
   <text id="text3396" style="word-spacing:0px;letter-spacing:0px" transform="scale(1.0795 .92638)" xml:space="preserve" line-height="125%" font-size="47.555px" y="159.79726" x="393.43109" font-family="Matilde" fill="#000000"><tspan id="tspan3398" y="159.79726" x="393.43109">EMMA &amp; JACOB</tspan></text>
  </g>
 </g>
</svg>
