<?xml version="1.0" encoding="UTF-8" standalone="no"?>
<!-- Created with Inkscape (http://www.inkscape.org/) -->

<svg
   xmlns:dc="http://purl.org/dc/elements/1.1/"
   xmlns:cc="http://creativecommons.org/ns#"
   xmlns:rdf="http://www.w3.org/1999/02/22-rdf-syntax-ns#"
   xmlns:svg="http://www.w3.org/2000/svg"
   xmlns="http://www.w3.org/2000/svg"
   xmlns:sodipodi="http://sodipodi.sourceforge.net/DTD/sodipodi-0.dtd"
   xmlns:inkscape="http://www.inkscape.org/namespaces/inkscape"
   width="69.334717mm"
   height="18.877981mm"
   viewBox="0 0 245.67419 66.890484"
   id="svg4647"
   version="1.1"
   inkscape:version="0.91 r13725"
   sodipodi:docname="Emma and Jacob.svg">
  <defs
     id="defs4649">
    <clipPath
       clipPathUnits="userSpaceOnUse"
       id="clipPath3780">
      <path
         d="M 0,800 800,800 800,0 0,0 0,800 Z"
         id="path3782"
         inkscape:connector-curvature="0" />
    </clipPath>
  </defs>
  <sodipodi:namedview
     id="base"
     pagecolor="#ffffff"
     bordercolor="#666666"
     borderopacity="1.0"
     inkscape:pageopacity="0.0"
     inkscape:pageshadow="2"
     inkscape:zoom="2.3720106"
     inkscape:cx="299.93566"
     inkscape:cy="-9.4704143"
     inkscape:document-units="px"
     inkscape:current-layer="layer1"
     showgrid="false"
     inkscape:window-width="1920"
     inkscape:window-height="1017"
     inkscape:window-x="-8"
     inkscape:window-y="-8"
     inkscape:window-maximized="1"
     fit-margin-top="0"
     fit-margin-left="0"
     fit-margin-right="0"
     fit-margin-bottom="0" />
  <metadata
     id="metadata4652">
    <rdf:RDF>
      <cc:Work
         rdf:about="">
        <dc:format>image/svg+xml</dc:format>
        <dc:type
           rdf:resource="http://purl.org/dc/dcmitype/StillImage" />
        <dc:title></dc:title>
      </cc:Work>
    </rdf:RDF>
  </metadata>
  <g
     inkscape:label="Layer 1"
     inkscape:groupmode="layer"
     id="layer1"
     transform="translate(-77.836546,-33.676838)">
    <text
       xml:space="preserve"
       style="font-style:normal;font-variant:normal;font-weight:normal;font-stretch:normal;font-size:42.40670395px;line-height:125%;font-family:'Matilde Sketch';-inkscape-font-specification:'Matilde Sketch';letter-spacing:0px;word-spacing:0px;fill:#000000;fill-opacity:1;stroke:none;stroke-width:1px;stroke-linecap:butt;stroke-linejoin:miter;stroke-opacity:1"
       x="113.37634"
       y="127.31915"
       id="text4577"
       sodipodi:linespacing="125%"
       transform="scale(1.0075627,0.99249402)"><tspan
         sodipodi:role="line"
         id="tspan4579"
         x="113.37634"
         y="127.31915"
         style="font-style:normal;font-variant:normal;font-weight:normal;font-stretch:normal;font-family:'Matilde Sketch';-inkscape-font-specification:'Matilde Sketch';fill:#666666" /></text>
    <text
       sodipodi:linespacing="125%"
       id="text3392"
       y="131.86218"
       x="117"
       style="font-style:normal;font-weight:normal;font-size:40px;line-height:125%;font-family:sans-serif;letter-spacing:0px;word-spacing:0px;fill:#000000;fill-opacity:1;stroke:none;stroke-width:1px;stroke-linecap:butt;stroke-linejoin:miter;stroke-opacity:1"
       xml:space="preserve"><tspan
         y="131.86218"
         x="117"
         id="tspan3394"
         sodipodi:role="line" /></text>
    <g
       id="g3629"
       transform="translate(-315.34429,-67.453325)">
      <g
         transform="matrix(0.93216361,0,0,-0.75157856,398.7052,151.31562)"
         id="g3856">
        <path
           inkscape:connector-curvature="0"
           id="path3858"
           style="fill:#837c74;fill-opacity:1;fill-rule:nonzero;stroke:none"
           d="m 0,0 c 0,0 -0.188,0.088 -0.511,0.329 -0.288,0.236 -0.815,0.702 -0.833,1.542 -0.028,0.82 0.407,1.72 1.012,2.572 0.608,0.863 1.391,1.742 2.277,2.644 0.45,0.466 0.9,0.897 1.351,1.396 0.393,0.457 0.799,0.996 1.131,1.568 0.678,1.149 1.111,2.509 1.238,3.929 0.116,1.419 -0.116,2.914 -0.763,4.215 -0.623,1.315 -1.659,2.399 -2.991,3.039 -1.167,0.549 -2.68,0.505 -3.849,-0.185 -1.177,-0.673 -2.015,-1.857 -2.182,-3.137 -0.187,-1.332 0.24,-2.51 1.209,-3.186 0.952,-0.671 2.258,-0.815 3.24,-0.467 1.008,0.34 1.58,1.228 1.636,2.151 0.112,0.933 -0.315,1.666 -0.955,1.881 -0.627,0.231 -1.19,-0.053 -1.411,-0.352 -0.23,-0.304 -0.252,-0.532 -0.267,-0.524 0.018,-0.005 -0.006,0.217 0.18,0.583 0.174,0.347 0.76,0.845 1.599,0.666 C 1.515,18.587 1.943,18.337 2.245,17.923 2.564,17.497 2.69,16.948 2.716,16.4 2.745,15.842 2.648,15.205 2.328,14.605 2.002,14.013 1.447,13.503 0.786,13.193 c -1.319,-0.63 -3.036,-0.624 -4.519,0.254 -0.739,0.431 -1.391,1.128 -1.77,1.974 -0.101,0.195 -0.177,0.473 -0.244,0.687 l -0.065,0.28 -0.017,0.07 -0.023,0.132 -0.021,0.166 c -0.062,0.442 -0.07,0.9 -0.024,1.359 0.149,1.853 1.298,3.652 2.985,4.615 1.665,0.988 3.87,1.205 5.729,0.27 1.679,-0.832 3.07,-2.316 3.822,-3.99 C 7.404,17.327 7.591,15.489 7.386,13.798 7.183,12.096 6.519,10.546 5.661,9.271 5.224,8.629 4.758,8.066 4.21,7.553 3.709,7.091 3.173,6.665 2.712,6.268 1.769,5.457 0.911,4.714 0.252,3.98 -0.4,3.25 -0.889,2.524 -0.957,1.858 -1.044,1.188 -0.689,0.686 -0.438,0.406 -0.176,0.125 0,0 0,0" />
      </g>
      <g
         transform="matrix(0.93216361,0,0,-0.75157856,398.7052,116.50152)"
         id="g3860">
        <path
           inkscape:connector-curvature="0"
           id="path3862"
           style="fill:#837c74;fill-opacity:1;fill-rule:nonzero;stroke:none"
           d="m 0,0 c 0,0 -0.176,-0.125 -0.438,-0.406 -0.251,-0.28 -0.606,-0.782 -0.519,-1.452 0.068,-0.666 0.557,-1.392 1.209,-2.122 0.659,-0.734 1.517,-1.477 2.46,-2.288 0.461,-0.397 0.997,-0.823 1.498,-1.285 0.548,-0.513 1.014,-1.076 1.451,-1.718 0.858,-1.275 1.522,-2.825 1.725,-4.526 0.205,-1.692 0.018,-3.53 -0.747,-5.213 -0.753,-1.674 -2.143,-3.158 -3.822,-3.989 -1.858,-0.936 -4.064,-0.719 -5.728,0.269 -1.688,0.963 -2.836,2.761 -2.986,4.614 -0.046,0.459 -0.038,0.918 0.024,1.359 l 0.021,0.166 0.023,0.133 0.017,0.07 0.065,0.279 c 0.067,0.215 0.143,0.493 0.243,0.687 0.38,0.846 1.032,1.544 1.77,1.975 1.484,0.878 3.201,0.884 4.519,0.254 0.661,-0.309 1.217,-0.819 1.542,-1.411 0.32,-0.6 0.418,-1.237 0.389,-1.795 -0.026,-0.549 -0.151,-1.098 -0.471,-1.523 -0.301,-0.415 -0.73,-0.665 -1.133,-0.741 -0.839,-0.18 -1.426,0.318 -1.599,0.665 -0.187,0.366 -0.163,0.588 -0.181,0.583 0.015,0.008 0.037,-0.22 0.268,-0.524 0.22,-0.299 0.783,-0.583 1.41,-0.352 0.64,0.216 1.067,0.949 0.955,1.881 -0.056,0.924 -0.629,1.811 -1.637,2.151 -0.982,0.348 -2.288,0.203 -3.239,-0.467 -0.969,-0.676 -1.396,-1.855 -1.209,-3.187 0.167,-1.28 1.006,-2.463 2.183,-3.136 1.168,-0.69 2.682,-0.734 3.848,-0.185 1.332,0.64 2.368,1.724 2.991,3.039 0.647,1.301 0.879,2.796 0.763,4.215 -0.127,1.421 -0.56,2.78 -1.238,3.929 -0.332,0.572 -0.738,1.111 -1.131,1.568 -0.451,0.499 -0.901,0.93 -1.351,1.396 -0.886,0.902 -1.669,1.781 -2.278,2.644 -0.604,0.852 -1.039,1.752 -1.011,2.572 0.018,0.84 0.545,1.306 0.833,1.542 C -0.188,-0.088 0,0 0,0" />
      </g>
      <g
         transform="matrix(0.93216361,0,0,-0.75157856,633.33096,151.31562)"
         id="g3864">
        <path
           inkscape:connector-curvature="0"
           id="path3866"
           style="fill:#837c74;fill-opacity:1;fill-rule:nonzero;stroke:none"
           d="M 0,0 C 0,0 0.176,0.125 0.438,0.406 0.689,0.686 1.044,1.188 0.957,1.858 0.889,2.524 0.4,3.25 -0.252,3.98 c -0.659,0.734 -1.517,1.477 -2.46,2.288 -0.461,0.397 -0.997,0.823 -1.498,1.285 -0.548,0.513 -1.014,1.076 -1.451,1.718 -0.858,1.275 -1.522,2.825 -1.725,4.527 -0.205,1.691 -0.018,3.529 0.747,5.212 0.752,1.674 2.143,3.158 3.822,3.99 1.859,0.935 4.064,0.718 5.729,-0.27 1.687,-0.963 2.836,-2.762 2.985,-4.615 0.046,-0.459 0.037,-0.917 -0.024,-1.359 L 5.852,16.59 5.829,16.458 5.812,16.388 5.747,16.108 C 5.68,15.894 5.604,15.616 5.504,15.421 5.124,14.575 4.472,13.878 3.733,13.447 2.25,12.569 0.533,12.563 -0.786,13.193 c -0.661,0.31 -1.216,0.82 -1.542,1.412 -0.32,0.6 -0.417,1.237 -0.388,1.795 0.027,0.548 0.152,1.097 0.471,1.523 0.302,0.414 0.73,0.664 1.134,0.741 0.839,0.179 1.425,-0.319 1.599,-0.666 0.186,-0.366 0.162,-0.588 0.18,-0.583 -0.015,-0.008 -0.037,0.22 -0.267,0.524 -0.221,0.299 -0.784,0.583 -1.411,0.352 -0.64,-0.215 -1.067,-0.948 -0.955,-1.881 0.056,-0.923 0.629,-1.811 1.636,-2.151 0.982,-0.348 2.288,-0.204 3.24,0.467 0.969,0.676 1.396,1.854 1.209,3.186 -0.167,1.28 -1.005,2.464 -2.182,3.137 -1.169,0.69 -2.682,0.734 -3.849,0.185 -1.332,-0.64 -2.368,-1.724 -2.991,-3.039 -0.647,-1.301 -0.879,-2.796 -0.763,-4.215 0.127,-1.42 0.56,-2.78 1.238,-3.929 0.332,-0.572 0.738,-1.111 1.131,-1.568 0.45,-0.499 0.901,-0.93 1.351,-1.396 C -1.059,6.185 -0.276,5.306 0.332,4.443 0.937,3.591 1.372,2.691 1.344,1.871 1.326,1.031 0.799,0.565 0.511,0.329 0.187,0.088 0,0 0,0" />
      </g>
      <g
         transform="matrix(0.93216361,0,0,-0.75157856,633.33096,116.50152)"
         id="g3868">
        <path
           inkscape:connector-curvature="0"
           id="path3870"
           style="fill:#837c74;fill-opacity:1;fill-rule:nonzero;stroke:none"
           d="m 0,0 c 0,0 0.187,-0.088 0.511,-0.329 0.288,-0.236 0.815,-0.702 0.833,-1.542 0.028,-0.82 -0.407,-1.72 -1.012,-2.572 -0.608,-0.863 -1.391,-1.742 -2.277,-2.644 -0.45,-0.466 -0.9,-0.897 -1.351,-1.396 -0.393,-0.457 -0.799,-0.996 -1.131,-1.568 -0.678,-1.149 -1.111,-2.508 -1.238,-3.929 -0.116,-1.419 0.116,-2.914 0.763,-4.215 0.623,-1.315 1.659,-2.399 2.991,-3.039 1.166,-0.549 2.68,-0.505 3.848,0.185 1.177,0.673 2.016,1.856 2.183,3.136 0.187,1.332 -0.24,2.511 -1.209,3.187 -0.952,0.67 -2.257,0.815 -3.239,0.467 -1.008,-0.34 -1.581,-1.227 -1.637,-2.151 -0.112,-0.932 0.315,-1.665 0.955,-1.881 0.627,-0.231 1.19,0.053 1.41,0.352 0.231,0.304 0.253,0.532 0.268,0.524 -0.018,0.005 0.006,-0.217 -0.18,-0.583 -0.174,-0.347 -0.761,-0.845 -1.6,-0.665 -0.403,0.076 -0.832,0.326 -1.133,0.741 -0.32,0.425 -0.445,0.974 -0.471,1.523 -0.029,0.558 0.069,1.195 0.389,1.795 0.325,0.592 0.88,1.102 1.542,1.411 1.318,0.63 3.035,0.624 4.519,-0.254 0.738,-0.431 1.39,-1.129 1.77,-1.975 0.1,-0.194 0.176,-0.472 0.243,-0.687 l 0.065,-0.279 0.017,-0.07 0.023,-0.133 0.021,-0.166 c 0.061,-0.441 0.07,-0.9 0.024,-1.359 -0.15,-1.853 -1.298,-3.651 -2.986,-4.614 -1.664,-0.988 -3.87,-1.205 -5.728,-0.269 -1.679,0.831 -3.069,2.315 -3.822,3.989 -0.765,1.683 -0.952,3.521 -0.747,5.213 0.203,1.701 0.867,3.251 1.725,4.526 0.437,0.642 0.903,1.205 1.451,1.718 0.501,0.462 1.037,0.888 1.498,1.285 0.943,0.811 1.801,1.554 2.46,2.288 0.652,0.73 1.141,1.456 1.209,2.122 0.087,0.67 -0.268,1.172 -0.519,1.452 C 0.176,-0.125 0,0 0,0" />
      </g>
      <g
         transform="matrix(0.93216361,0,0,-0.75157856,399.43713,168.02065)"
         id="g3872">
        <path
           inkscape:connector-curvature="0"
           id="path3874"
           style="fill:#837c74;fill-opacity:1;fill-rule:nonzero;stroke:none"
           d="m 0,0 -0.514,0 c -0.552,0 -1,0.448 -1,1 0,0.552 0.448,1 1,1 L 0,2 C 0.553,2 1,1.552 1,1 1,0.448 0.553,0 0,0 M 6.674,0 6.161,0 c -0.553,0 -1,0.448 -1,1 0,0.552 0.447,1 1,1 l 0.513,0 c 0.553,0 1,-0.448 1,-1 0,-0.552 -0.447,-1 -1,-1 m 6.675,0 -0.514,0 c -0.553,0 -1,0.448 -1,1 0,0.552 0.447,1 1,1 l 0.514,0 c 0.552,0 1,-0.448 1,-1 0,-0.552 -0.448,-1 -1,-1 m 6.673,0 -0.512,0 c -0.553,0 -1,0.448 -1,1 0,0.552 0.447,1 1,1 l 0.512,0 c 0.553,0 1,-0.448 1,-1 0,-0.552 -0.447,-1 -1,-1 m 6.675,0 -0.513,0 c -0.553,0 -1,0.448 -1,1 0,0.552 0.447,1 1,1 l 0.513,0 c 0.553,0 1,-0.448 1,-1 0,-0.552 -0.447,-1 -1,-1 m 6.674,0 -0.513,0 c -0.552,0 -1,0.448 -1,1 0,0.552 0.448,1 1,1 l 0.513,0 c 0.553,0 1,-0.448 1,-1 0,-0.552 -0.447,-1 -1,-1 m 6.675,0 -0.514,0 c -0.553,0 -1,0.448 -1,1 0,0.552 0.447,1 1,1 l 0.514,0 c 0.553,0 1,-0.448 1,-1 0,-0.552 -0.447,-1 -1,-1 m 6.674,0 -0.513,0 c -0.553,0 -1,0.448 -1,1 0,0.552 0.447,1 1,1 l 0.513,0 c 0.552,0 1,-0.448 1,-1 0,-0.552 -0.448,-1 -1,-1 m 6.675,0 -0.514,0 c -0.553,0 -1,0.448 -1,1 0,0.552 0.447,1 1,1 l 0.514,0 c 0.552,0 1,-0.448 1,-1 0,-0.552 -0.448,-1 -1,-1 m 6.674,0 -0.513,0 c -0.553,0 -1,0.448 -1,1 0,0.552 0.447,1 1,1 l 0.513,0 c 0.553,0 1,-0.448 1,-1 0,-0.552 -0.447,-1 -1,-1 m 6.674,0 -0.514,0 c -0.552,0 -1,0.448 -1,1 0,0.552 0.448,1 1,1 l 0.514,0 c 0.553,0 1,-0.448 1,-1 0,-0.552 -0.447,-1 -1,-1 m 6.675,0 -0.514,0 c -0.552,0 -1,0.448 -1,1 0,0.552 0.448,1 1,1 l 0.514,0 c 0.553,0 1,-0.448 1,-1 0,-0.552 -0.447,-1 -1,-1 m 6.674,0 -0.514,0 c -0.553,0 -1,0.448 -1,1 0,0.552 0.447,1 1,1 l 0.514,0 c 0.553,0 1,-0.448 1,-1 0,-0.552 -0.447,-1 -1,-1 m 6.675,0 -0.514,0 c -0.553,0 -1,0.448 -1,1 0,0.552 0.447,1 1,1 l 0.514,0 c 0.552,0 1,-0.448 1,-1 0,-0.552 -0.448,-1 -1,-1 m 6.673,0 -0.513,0 c -0.553,0 -1,0.448 -1,1 0,0.552 0.447,1 1,1 l 0.513,0 c 0.553,0 1,-0.448 1,-1 0,-0.552 -0.447,-1 -1,-1 m 6.675,0 -0.513,0 c -0.553,0 -1,0.448 -1,1 0,0.552 0.447,1 1,1 l 0.513,0 c 0.553,0 1,-0.448 1,-1 0,-0.552 -0.447,-1 -1,-1 m 6.674,0 -0.513,0 c -0.552,0 -1,0.448 -1,1 0,0.552 0.448,1 1,1 l 0.513,0 c 0.553,0 1,-0.448 1,-1 0,-0.552 -0.447,-1 -1,-1 m 6.675,0 -0.514,0 c -0.553,0 -1,0.448 -1,1 0,0.552 0.447,1 1,1 l 0.514,0 c 0.553,0 1,-0.448 1,-1 0,-0.552 -0.447,-1 -1,-1 m 6.674,0 -0.513,0 c -0.553,0 -1,0.448 -1,1 0,0.552 0.447,1 1,1 l 0.513,0 c 0.552,0 1,-0.448 1,-1 0,-0.552 -0.448,-1 -1,-1 m 6.675,0 -0.514,0 c -0.553,0 -1,0.448 -1,1 0,0.552 0.447,1 1,1 l 0.514,0 c 0.552,0 1,-0.448 1,-1 0,-0.552 -0.448,-1 -1,-1 m 6.673,0 -0.512,0 c -0.553,0 -1,0.448 -1,1 0,0.552 0.447,1 1,1 l 0.512,0 c 0.553,0 1,-0.448 1,-1 0,-0.552 -0.447,-1 -1,-1 m 6.675,0 -0.514,0 c -0.552,0 -1,0.448 -1,1 0,0.552 0.448,1 1,1 l 0.514,0 c 0.553,0 1,-0.448 1,-1 0,-0.552 -0.447,-1 -1,-1 m 6.674,0 -0.513,0 c -0.552,0 -1,0.448 -1,1 0,0.552 0.448,1 1,1 l 0.513,0 c 0.553,0 1,-0.448 1,-1 0,-0.552 -0.447,-1 -1,-1 m 6.675,0 -0.514,0 c -0.553,0 -1,0.448 -1,1 0,0.552 0.447,1 1,1 l 0.514,0 c 0.552,0 1,-0.448 1,-1 0,-0.552 -0.448,-1 -1,-1 m 6.675,0 -0.514,0 c -0.553,0 -1,0.448 -1,1 0,0.552 0.447,1 1,1 l 0.514,0 c 0.552,0 1,-0.448 1,-1 0,-0.552 -0.448,-1 -1,-1 m 6.673,0 -0.513,0 c -0.553,0 -1,0.448 -1,1 0,0.552 0.447,1 1,1 l 0.513,0 c 0.553,0 1,-0.448 1,-1 0,-0.552 -0.447,-1 -1,-1 m 6.675,0 -0.513,0 c -0.553,0 -1,0.448 -1,1 0,0.552 0.447,1 1,1 l 0.513,0 c 0.553,0 1,-0.448 1,-1 0,-0.552 -0.447,-1 -1,-1 m 6.674,0 -0.514,0 c -0.552,0 -1,0.448 -1,1 0,0.552 0.448,1 1,1 l 0.514,0 c 0.553,0 1,-0.448 1,-1 0,-0.552 -0.447,-1 -1,-1 m 6.675,0 -0.514,0 c -0.553,0 -1,0.448 -1,1 0,0.552 0.447,1 1,1 l 0.514,0 c 0.553,0 1,-0.448 1,-1 0,-0.552 -0.447,-1 -1,-1 m 6.674,0 -0.514,0 c -0.553,0 -1,0.448 -1,1 0,0.552 0.447,1 1,1 l 0.514,0 c 0.552,0 1,-0.448 1,-1 0,-0.552 -0.448,-1 -1,-1 m 6.674,0 -0.513,0 c -0.553,0 -1,0.448 -1,1 0,0.552 0.447,1 1,1 l 0.513,0 c 0.553,0 1,-0.448 1,-1 0,-0.552 -0.447,-1 -1,-1 m 6.674,0 -0.512,0 c -0.553,0 -1,0.448 -1,1 0,0.552 0.447,1 1,1 l 0.512,0 c 0.553,0 1,-0.448 1,-1 0,-0.552 -0.447,-1 -1,-1 m 6.675,0 -0.514,0 c -0.552,0 -1,0.448 -1,1 0,0.552 0.448,1 1,1 l 0.514,0 c 0.553,0 1,-0.448 1,-1 0,-0.552 -0.447,-1 -1,-1 m 6.674,0 -0.513,0 c -0.553,0 -1,0.448 -1,1 0,0.552 0.447,1 1,1 l 0.513,0 c 0.553,0 1,-0.448 1,-1 0,-0.552 -0.447,-1 -1,-1 m 6.675,0 -0.514,0 c -0.553,0 -1,0.448 -1,1 0,0.552 0.447,1 1,1 l 0.514,0 c 0.552,0 1,-0.448 1,-1 0,-0.552 -0.448,-1 -1,-1 m 6.674,0 -0.513,0 c -0.553,0 -1,0.448 -1,1 0,0.552 0.447,1 1,1 l 0.513,0 c 0.552,0 1,-0.448 1,-1 0,-0.552 -0.448,-1 -1,-1 m 6.674,0 -0.513,0 c -0.553,0 -1,0.448 -1,1 0,0.552 0.447,1 1,1 l 0.513,0 c 0.553,0 1,-0.448 1,-1 0,-0.552 -0.447,-1 -1,-1 m 6.674,0 -0.513,0 c -0.552,0 -1,0.448 -1,1 0,0.552 0.448,1 1,1 l 0.513,0 c 0.553,0 1,-0.448 1,-1 0,-0.552 -0.447,-1 -1,-1" />
      </g>
      <g
         transform="matrix(0.93216361,0,0,-0.75157856,399.43713,102.63332)"
         id="g3876">
        <path
           inkscape:connector-curvature="0"
           id="path3878"
           style="fill:#837c74;fill-opacity:1;fill-rule:nonzero;stroke:none"
           d="m 0,0 -0.514,0 c -0.552,0 -1,0.448 -1,1 0,0.552 0.448,1 1,1 L 0,2 C 0.553,2 1,1.552 1,1 1,0.448 0.553,0 0,0 M 6.674,0 6.161,0 c -0.553,0 -1,0.448 -1,1 0,0.552 0.447,1 1,1 l 0.513,0 c 0.553,0 1,-0.448 1,-1 0,-0.552 -0.447,-1 -1,-1 m 6.675,0 -0.514,0 c -0.553,0 -1,0.448 -1,1 0,0.552 0.447,1 1,1 l 0.514,0 c 0.552,0 1,-0.448 1,-1 0,-0.552 -0.448,-1 -1,-1 m 6.673,0 -0.512,0 c -0.553,0 -1,0.448 -1,1 0,0.552 0.447,1 1,1 l 0.512,0 c 0.553,0 1,-0.448 1,-1 0,-0.552 -0.447,-1 -1,-1 m 6.675,0 -0.513,0 c -0.553,0 -1,0.448 -1,1 0,0.552 0.447,1 1,1 l 0.513,0 c 0.553,0 1,-0.448 1,-1 0,-0.552 -0.447,-1 -1,-1 m 6.674,0 -0.513,0 c -0.552,0 -1,0.448 -1,1 0,0.552 0.448,1 1,1 l 0.513,0 c 0.553,0 1,-0.448 1,-1 0,-0.552 -0.447,-1 -1,-1 m 6.675,0 -0.514,0 c -0.553,0 -1,0.448 -1,1 0,0.552 0.447,1 1,1 l 0.514,0 c 0.553,0 1,-0.448 1,-1 0,-0.552 -0.447,-1 -1,-1 m 6.674,0 -0.513,0 c -0.553,0 -1,0.448 -1,1 0,0.552 0.447,1 1,1 l 0.513,0 c 0.552,0 1,-0.448 1,-1 0,-0.552 -0.448,-1 -1,-1 m 6.675,0 -0.514,0 c -0.553,0 -1,0.448 -1,1 0,0.552 0.447,1 1,1 l 0.514,0 c 0.552,0 1,-0.448 1,-1 0,-0.552 -0.448,-1 -1,-1 m 6.674,0 -0.513,0 c -0.553,0 -1,0.448 -1,1 0,0.552 0.447,1 1,1 l 0.513,0 c 0.553,0 1,-0.448 1,-1 0,-0.552 -0.447,-1 -1,-1 m 6.674,0 -0.514,0 c -0.552,0 -1,0.448 -1,1 0,0.552 0.448,1 1,1 l 0.514,0 c 0.553,0 1,-0.448 1,-1 0,-0.552 -0.447,-1 -1,-1 m 6.675,0 -0.514,0 c -0.552,0 -1,0.448 -1,1 0,0.552 0.448,1 1,1 l 0.514,0 c 0.553,0 1,-0.448 1,-1 0,-0.552 -0.447,-1 -1,-1 m 6.674,0 -0.514,0 c -0.553,0 -1,0.448 -1,1 0,0.552 0.447,1 1,1 l 0.514,0 c 0.553,0 1,-0.448 1,-1 0,-0.552 -0.447,-1 -1,-1 m 6.675,0 -0.514,0 c -0.553,0 -1,0.448 -1,1 0,0.552 0.447,1 1,1 l 0.514,0 c 0.552,0 1,-0.448 1,-1 0,-0.552 -0.448,-1 -1,-1 m 6.673,0 -0.513,0 c -0.553,0 -1,0.448 -1,1 0,0.552 0.447,1 1,1 l 0.513,0 c 0.553,0 1,-0.448 1,-1 0,-0.552 -0.447,-1 -1,-1 m 6.675,0 -0.513,0 c -0.553,0 -1,0.448 -1,1 0,0.552 0.447,1 1,1 l 0.513,0 c 0.553,0 1,-0.448 1,-1 0,-0.552 -0.447,-1 -1,-1 m 6.674,0 -0.513,0 c -0.552,0 -1,0.448 -1,1 0,0.552 0.448,1 1,1 l 0.513,0 c 0.553,0 1,-0.448 1,-1 0,-0.552 -0.447,-1 -1,-1 m 6.675,0 -0.514,0 c -0.553,0 -1,0.448 -1,1 0,0.552 0.447,1 1,1 l 0.514,0 c 0.553,0 1,-0.448 1,-1 0,-0.552 -0.447,-1 -1,-1 m 6.674,0 -0.513,0 c -0.553,0 -1,0.448 -1,1 0,0.552 0.447,1 1,1 l 0.513,0 c 0.552,0 1,-0.448 1,-1 0,-0.552 -0.448,-1 -1,-1 m 6.675,0 -0.514,0 c -0.553,0 -1,0.448 -1,1 0,0.552 0.447,1 1,1 l 0.514,0 c 0.552,0 1,-0.448 1,-1 0,-0.552 -0.448,-1 -1,-1 m 6.673,0 -0.512,0 c -0.553,0 -1,0.448 -1,1 0,0.552 0.447,1 1,1 l 0.512,0 c 0.553,0 1,-0.448 1,-1 0,-0.552 -0.447,-1 -1,-1 m 6.675,0 -0.514,0 c -0.552,0 -1,0.448 -1,1 0,0.552 0.448,1 1,1 l 0.514,0 c 0.553,0 1,-0.448 1,-1 0,-0.552 -0.447,-1 -1,-1 m 6.674,0 -0.513,0 c -0.552,0 -1,0.448 -1,1 0,0.552 0.448,1 1,1 l 0.513,0 c 0.553,0 1,-0.448 1,-1 0,-0.552 -0.447,-1 -1,-1 m 6.675,0 -0.514,0 c -0.553,0 -1,0.448 -1,1 0,0.552 0.447,1 1,1 l 0.514,0 c 0.552,0 1,-0.448 1,-1 0,-0.552 -0.448,-1 -1,-1 m 6.675,0 -0.514,0 c -0.553,0 -1,0.448 -1,1 0,0.552 0.447,1 1,1 l 0.514,0 c 0.552,0 1,-0.448 1,-1 0,-0.552 -0.448,-1 -1,-1 m 6.673,0 -0.513,0 c -0.553,0 -1,0.448 -1,1 0,0.552 0.447,1 1,1 l 0.513,0 c 0.553,0 1,-0.448 1,-1 0,-0.552 -0.447,-1 -1,-1 m 6.675,0 -0.513,0 c -0.553,0 -1,0.448 -1,1 0,0.552 0.447,1 1,1 l 0.513,0 c 0.553,0 1,-0.448 1,-1 0,-0.552 -0.447,-1 -1,-1 m 6.674,0 -0.514,0 c -0.552,0 -1,0.448 -1,1 0,0.552 0.448,1 1,1 l 0.514,0 c 0.553,0 1,-0.448 1,-1 0,-0.552 -0.447,-1 -1,-1 m 6.675,0 -0.514,0 c -0.553,0 -1,0.448 -1,1 0,0.552 0.447,1 1,1 l 0.514,0 c 0.553,0 1,-0.448 1,-1 0,-0.552 -0.447,-1 -1,-1 m 6.674,0 -0.514,0 c -0.553,0 -1,0.448 -1,1 0,0.552 0.447,1 1,1 l 0.514,0 c 0.552,0 1,-0.448 1,-1 0,-0.552 -0.448,-1 -1,-1 m 6.674,0 -0.513,0 c -0.553,0 -1,0.448 -1,1 0,0.552 0.447,1 1,1 l 0.513,0 c 0.553,0 1,-0.448 1,-1 0,-0.552 -0.447,-1 -1,-1 m 6.674,0 -0.512,0 c -0.553,0 -1,0.448 -1,1 0,0.552 0.447,1 1,1 l 0.512,0 c 0.553,0 1,-0.448 1,-1 0,-0.552 -0.447,-1 -1,-1 m 6.675,0 -0.514,0 c -0.552,0 -1,0.448 -1,1 0,0.552 0.448,1 1,1 l 0.514,0 c 0.553,0 1,-0.448 1,-1 0,-0.552 -0.447,-1 -1,-1 m 6.674,0 -0.513,0 c -0.553,0 -1,0.448 -1,1 0,0.552 0.447,1 1,1 l 0.513,0 c 0.553,0 1,-0.448 1,-1 0,-0.552 -0.447,-1 -1,-1 m 6.675,0 -0.514,0 c -0.553,0 -1,0.448 -1,1 0,0.552 0.447,1 1,1 l 0.514,0 c 0.552,0 1,-0.448 1,-1 0,-0.552 -0.448,-1 -1,-1 m 6.674,0 -0.513,0 c -0.553,0 -1,0.448 -1,1 0,0.552 0.447,1 1,1 l 0.513,0 c 0.552,0 1,-0.448 1,-1 0,-0.552 -0.448,-1 -1,-1 m 6.674,0 -0.513,0 c -0.553,0 -1,0.448 -1,1 0,0.552 0.447,1 1,1 l 0.513,0 c 0.553,0 1,-0.448 1,-1 0,-0.552 -0.447,-1 -1,-1 m 6.674,0 -0.513,0 c -0.552,0 -1,0.448 -1,1 0,0.552 0.448,1 1,1 l 0.513,0 c 0.553,0 1,-0.448 1,-1 0,-0.552 -0.447,-1 -1,-1" />
      </g>
      <g
         transform="matrix(0.93216361,0,0,-0.75157856,399.89044,164.95158)"
         id="g3880">
        <path
           inkscape:connector-curvature="0"
           id="path3882"
           style="fill:#837c74;fill-opacity:1;fill-rule:nonzero;stroke:none"
           d="M 0,0 C 0,0 15.542,0.112 38.854,0.28 50.511,0.325 64.109,0.377 78.68,0.433 93.25,0.454 108.792,0.477 124.333,0.5 139.875,0.477 155.417,0.455 169.987,0.434 184.558,0.378 198.156,0.326 209.812,0.281 233.125,0.113 248.667,0 248.667,0 c 0,0 -15.542,-0.113 -38.855,-0.281 C 198.156,-0.326 184.558,-0.378 169.987,-0.434 155.417,-0.455 139.875,-0.477 124.333,-0.5 108.792,-0.477 93.25,-0.454 78.68,-0.433 64.109,-0.377 50.511,-0.325 38.854,-0.28 15.542,-0.112 0,0 0,0" />
      </g>
      <g
         transform="matrix(0.93216361,0,0,-0.75157856,399.89044,104.44951)"
         id="g3884">
        <path
           inkscape:connector-curvature="0"
           id="path3886"
           style="fill:#837c74;fill-opacity:1;fill-rule:nonzero;stroke:none"
           d="M 0,0 C 0,0 15.542,0.112 38.854,0.28 50.511,0.325 64.109,0.377 78.68,0.433 93.25,0.454 108.792,0.477 124.333,0.5 139.875,0.477 155.417,0.455 169.987,0.434 184.558,0.378 198.156,0.326 209.812,0.281 233.125,0.113 248.667,0 248.667,0 c 0,0 -15.542,-0.113 -38.855,-0.281 C 198.156,-0.326 184.558,-0.378 169.987,-0.434 155.417,-0.455 139.875,-0.477 124.333,-0.5 108.792,-0.477 93.25,-0.454 78.68,-0.433 64.109,-0.377 50.511,-0.325 38.854,-0.28 15.542,-0.112 0,0 0,0" />
      </g>
      <text
         transform="scale(1.079473,0.92637796)"
         sodipodi:linespacing="125%"
         id="text3396"
         y="159.79726"
         x="393.43109"
         style="font-style:normal;font-variant:normal;font-weight:normal;font-stretch:normal;font-size:47.55476379px;line-height:125%;font-family:Matilde;-inkscape-font-specification:Matilde;letter-spacing:0px;word-spacing:0px;fill:#000000;fill-opacity:1;stroke:none;stroke-width:1px;stroke-linecap:butt;stroke-linejoin:miter;stroke-opacity:1"
         xml:space="preserve"><tspan
           y="159.79726"
           x="393.43109"
           id="tspan3398"
           sodipodi:role="line">EMMA &amp; JACOB</tspan></text>
    </g>
  </g>
</svg>
